<svg width="32" height="32" viewBox="0 0 32 32" fill="none" xmlns="http://www.w3.org/2000/svg">
<g clip-path="url(#clip0_133:282)">
<path d="M15.9998 5.99325C17.5546 5.99325 18.8149 4.65162 18.8149 2.99662C18.8149 1.34163 17.5546 0 15.9998 0C14.4449 0 13.1846 1.34163 13.1846 2.99662C13.1846 4.65162 14.4449 5.99325 15.9998 5.99325Z" fill="#57BBDD"/>
<path d="M20.5689 4.09668C20.0957 6.32138 18.2311 7.99111 16.0001 7.99111C13.7691 7.99111 11.9045 6.32138 11.4314 4.09668C9.75317 4.49472 8.49292 6.08627 8.49292 7.99111V11.9866C8.49292 13.088 9.33511 13.9844 10.3697 13.9844C11.4044 13.9844 12.2465 13.088 12.2465 11.9866V9.98888H19.7537V11.9866C19.7537 13.088 20.5959 13.9844 21.6305 13.9844C22.6652 13.9844 23.5074 13.088 23.5074 11.9866V7.99111C23.5073 6.08627 22.247 4.49472 20.5689 4.09668Z" fill="#57BBDD"/>
<path d="M30.5448 24.4128C29.1983 23.5852 27.4766 24.0762 26.6992 25.5096C25.9218 26.9428 26.3831 28.7755 27.7297 29.603C29.0761 30.4305 30.8605 29.9394 31.6378 28.5062C32.4152 27.0729 31.8913 25.2402 30.5448 24.4128Z" fill="#57BBDD"/>
<path d="M28.8273 17.5901L25.5767 15.5923C24.6806 15.0417 23.5303 15.3698 23.0129 16.3236C22.4956 17.2774 22.8039 18.5019 23.6999 19.0526L25.3253 20.0515L21.5717 26.9719L19.9463 25.973C19.0503 25.4224 17.8999 25.7505 17.3826 26.7043C16.8653 27.6581 17.1735 28.8827 18.0696 29.4333L21.3202 31.4311C22.8701 32.3835 24.7951 32.0175 25.9579 30.6695C24.3845 29.121 23.9583 26.5673 25.0738 24.5106C26.1893 22.4538 28.48 21.57 30.5266 22.2461C31.0419 20.5002 30.3772 18.5425 28.8273 17.5901Z" fill="#57BBDD"/>
<path d="M5.30093 25.5096C4.52349 24.0762 2.80181 23.5852 1.45524 24.4128C0.108804 25.2403 -0.415196 27.0729 0.362304 28.5063C1.13962 29.9395 2.92399 30.4306 4.27043 29.603C5.61699 28.7755 6.07831 26.9428 5.30093 25.5096Z" fill="#57BBDD"/>
<path d="M14.6175 26.7043C14.1002 25.7505 12.9497 25.4224 12.0537 25.973L10.4283 26.9719L6.67472 20.0514L8.3001 19.0526C9.19616 18.5019 9.50435 17.2773 8.9871 16.3236C8.46979 15.3698 7.31935 15.0417 6.42335 15.5923L3.17271 17.5901C1.62283 18.5425 0.958085 20.5002 1.47346 22.2461C3.52002 21.57 5.81083 22.4539 6.92635 24.5106C8.04185 26.5673 7.6156 29.1209 6.04221 30.6695C7.20503 32.0174 9.13003 32.3835 10.6799 31.4311L13.9305 29.4333C14.8265 28.8826 15.1348 27.658 14.6175 26.7043Z" fill="#57BBDD"/>
<path d="M19.0804 21.7307V16.0295L18.876 16.0478C18.0564 16.1199 17.2525 16.3285 16.4937 16.6659L16.134 16.8249V22.5035L16.3959 22.3876C17.1812 22.0398 18.0126 21.8247 18.8602 21.7498L19.0804 21.7307Z" fill="#57BBDD"/>
<path d="M19.75 16.8726H19.3482V21.8622C19.3485 21.9365 19.2949 21.9986 19.2252 22.0047L18.8822 22.0347C18.7832 22.0434 18.6845 22.0542 18.5862 22.067C18.5542 22.0711 18.5225 22.0766 18.4908 22.0813C18.4245 22.0907 18.3583 22.1002 18.2924 22.1114C18.2539 22.1179 18.2157 22.1255 18.1774 22.1327C18.1183 22.1437 18.0591 22.1547 18.0002 22.1671C17.96 22.1756 17.9199 22.1852 17.8789 22.1945C17.8227 22.2072 17.7666 22.2201 17.7109 22.2343C17.6691 22.2448 17.6275 22.256 17.5859 22.2673C17.5317 22.2816 17.4778 22.2969 17.4239 22.313C17.382 22.3252 17.34 22.3382 17.2983 22.3512C17.2447 22.3681 17.1919 22.3852 17.139 22.4032C17.0976 22.4174 17.0562 22.4317 17.0149 22.4459C16.9619 22.4649 16.9092 22.4845 16.8567 22.5048C16.8165 22.5203 16.7764 22.5359 16.7353 22.5523C16.7169 22.5597 16.6987 22.5676 16.6804 22.5752H19.75V16.8726Z" fill="#57BBDD"/>
<path d="M13.124 16.0478L12.9196 16.0295V21.7311L13.1573 21.7526C14.0044 21.828 14.8351 22.0445 15.6191 22.3941L15.8661 22.5035V16.8249L15.5067 16.6661C14.7478 16.3285 13.9437 16.1199 13.124 16.0478Z" fill="#57BBDD"/>
<path d="M12.25 16.8726V22.5749H15.3218C15.3053 22.5681 15.2888 22.5607 15.2722 22.5541C15.2339 22.5386 15.1953 22.5238 15.1567 22.5088C15.1023 22.4878 15.0479 22.4674 14.9931 22.4478C14.9535 22.4335 14.9137 22.4197 14.8739 22.4062C14.8196 22.3871 14.765 22.3692 14.7104 22.3525C14.6702 22.34 14.6301 22.3275 14.5899 22.3155C14.5348 22.2993 14.4796 22.2839 14.4243 22.2688C14.3841 22.2577 14.3439 22.2468 14.3029 22.2365C14.2467 22.2223 14.1903 22.2092 14.1339 22.1963C14.0938 22.187 14.0536 22.1776 14.0134 22.1691C13.955 22.1568 13.8964 22.1458 13.8377 22.1349C13.7993 22.1277 13.7608 22.1206 13.7223 22.1133C13.6576 22.1024 13.5926 22.0932 13.5277 22.0838C13.4949 22.0791 13.4623 22.0736 13.4295 22.0696C13.3313 22.057 13.2331 22.0461 13.1349 22.0373L12.7743 22.0047C12.7048 21.9984 12.6515 21.9363 12.6517 21.8622V16.8726H12.25Z" fill="#57BBDD"/>
</g>
<defs>
<clipPath id="clip0_133:282">
<rect width="32" height="32" fill="white"/>
</clipPath>
</defs>
</svg>
