<svg width="96" height="20" viewBox="0 0 96 20" fill="none" xmlns="http://www.w3.org/2000/svg">
<path d="M8.64258 11.2695C8.64258 10.7161 8.44727 10.293 8.05664 10C7.66602 9.70052 6.96289 9.38802 5.94727 9.0625C4.93164 8.73047 4.1276 8.40495 3.53516 8.08594C1.92057 7.21354 1.11328 6.03841 1.11328 4.56055C1.11328 3.79232 1.32812 3.10872 1.75781 2.50977C2.19401 1.9043 2.81576 1.43229 3.62305 1.09375C4.43685 0.755208 5.34831 0.585938 6.35742 0.585938C7.37305 0.585938 8.27799 0.771484 9.07227 1.14258C9.86654 1.50716 10.4818 2.02474 10.918 2.69531C11.3607 3.36589 11.582 4.1276 11.582 4.98047H8.65234C8.65234 4.32943 8.44727 3.82487 8.03711 3.4668C7.62695 3.10221 7.05078 2.91992 6.30859 2.91992C5.59245 2.91992 5.03581 3.07292 4.63867 3.37891C4.24154 3.67839 4.04297 4.07552 4.04297 4.57031C4.04297 5.03255 4.27409 5.41992 4.73633 5.73242C5.20508 6.04492 5.89193 6.33789 6.79688 6.61133C8.46354 7.11263 9.67773 7.73438 10.4395 8.47656C11.2012 9.21875 11.582 10.1432 11.582 11.25C11.582 12.4805 11.1165 13.4473 10.1855 14.1504C9.25456 14.847 8.0013 15.1953 6.42578 15.1953C5.33203 15.1953 4.33594 14.9967 3.4375 14.5996C2.53906 14.196 1.85221 13.6458 1.37695 12.9492C0.908203 12.2526 0.673828 11.4453 0.673828 10.5273H3.61328C3.61328 12.0964 4.55078 12.8809 6.42578 12.8809C7.1224 12.8809 7.66602 12.7409 8.05664 12.4609C8.44727 12.1745 8.64258 11.7773 8.64258 11.2695ZM16.3672 15H13.5352V4.43359H16.3672V15ZM13.3691 1.69922C13.3691 1.27604 13.5091 0.927734 13.7891 0.654297C14.0755 0.380859 14.4629 0.244141 14.9512 0.244141C15.4329 0.244141 15.8171 0.380859 16.1035 0.654297C16.39 0.927734 16.5332 1.27604 16.5332 1.69922C16.5332 2.12891 16.3867 2.48047 16.0938 2.75391C15.8073 3.02734 15.4264 3.16406 14.9512 3.16406C14.4759 3.16406 14.0918 3.02734 13.7988 2.75391C13.5124 2.48047 13.3691 2.12891 13.3691 1.69922ZM21.3477 4.43359L21.4355 5.61523C22.1842 4.69727 23.1966 4.23828 24.4727 4.23828C25.8333 4.23828 26.7676 4.77539 27.2754 5.84961C28.0176 4.77539 29.0755 4.23828 30.4492 4.23828C31.5951 4.23828 32.4479 4.57357 33.0078 5.24414C33.5677 5.9082 33.8477 6.91081 33.8477 8.25195V15H31.0156V8.26172C31.0156 7.66276 30.8984 7.22656 30.6641 6.95312C30.4297 6.67318 30.0163 6.5332 29.4238 6.5332C28.5775 6.5332 27.9915 6.93685 27.666 7.74414L27.6758 15H24.8535V8.27148C24.8535 7.65951 24.7331 7.2168 24.4922 6.94336C24.2513 6.66992 23.8411 6.5332 23.2617 6.5332C22.4609 6.5332 21.8815 6.86523 21.5234 7.5293V15H18.7012V4.43359H21.3477ZM45.5371 9.81445C45.5371 11.4421 45.166 12.7474 44.4238 13.7305C43.6882 14.707 42.6921 15.1953 41.4355 15.1953C40.3678 15.1953 39.5052 14.8242 38.8477 14.082V19.0625H36.0254V4.43359H38.6426L38.7402 5.46875C39.4238 4.64844 40.3158 4.23828 41.416 4.23828C42.7181 4.23828 43.7305 4.72005 44.4531 5.68359C45.1758 6.64714 45.5371 7.97526 45.5371 9.66797V9.81445ZM42.7148 9.60938C42.7148 8.6263 42.5391 7.86784 42.1875 7.33398C41.8424 6.80013 41.3379 6.5332 40.6738 6.5332C39.7884 6.5332 39.1797 6.87174 38.8477 7.54883V11.875C39.1927 12.5716 39.8079 12.9199 40.6934 12.9199C42.041 12.9199 42.7148 11.8164 42.7148 9.60938ZM58.1836 3.1543H53.8281V15H50.8984V3.1543H46.6016V0.78125H58.1836V3.1543ZM63.6621 15.1953C62.1126 15.1953 60.8496 14.7201 59.873 13.7695C58.903 12.819 58.418 11.5527 58.418 9.9707V9.69727C58.418 8.63607 58.623 7.6888 59.0332 6.85547C59.4434 6.01562 60.0228 5.37109 60.7715 4.92188C61.5267 4.46615 62.3861 4.23828 63.3496 4.23828C64.7949 4.23828 65.931 4.69401 66.7578 5.60547C67.5911 6.51693 68.0078 7.80924 68.0078 9.48242V10.6348H61.2793C61.3704 11.3249 61.6439 11.8783 62.0996 12.2949C62.5618 12.7116 63.1445 12.9199 63.8477 12.9199C64.9349 12.9199 65.7845 12.526 66.3965 11.7383L67.7832 13.291C67.36 13.89 66.7871 14.3587 66.0645 14.6973C65.3418 15.0293 64.541 15.1953 63.6621 15.1953ZM63.3398 6.52344C62.7799 6.52344 62.3242 6.71224 61.9727 7.08984C61.6276 7.46745 61.4062 8.00781 61.3086 8.71094H65.2344V8.48633C65.2214 7.86133 65.0521 7.37956 64.7266 7.04102C64.401 6.69596 63.9388 6.52344 63.3398 6.52344ZM75.7422 15C75.612 14.7461 75.5176 14.4303 75.459 14.0527C74.7754 14.8145 73.8867 15.1953 72.793 15.1953C71.7578 15.1953 70.8984 14.8958 70.2148 14.2969C69.5378 13.6979 69.1992 12.9427 69.1992 12.0312C69.1992 10.9115 69.6126 10.0521 70.4395 9.45312C71.2728 8.85417 72.474 8.55143 74.043 8.54492H75.3418V7.93945C75.3418 7.45117 75.2148 7.06055 74.9609 6.76758C74.7135 6.47461 74.3197 6.32812 73.7793 6.32812C73.304 6.32812 72.9297 6.44206 72.6562 6.66992C72.3893 6.89779 72.2559 7.21029 72.2559 7.60742H69.4336C69.4336 6.99544 69.6224 6.42904 70 5.9082C70.3776 5.38737 70.9115 4.98047 71.6016 4.6875C72.2917 4.38802 73.0664 4.23828 73.9258 4.23828C75.2279 4.23828 76.2598 4.56706 77.0215 5.22461C77.7897 5.87565 78.1738 6.79362 78.1738 7.97852V12.5586C78.1803 13.5612 78.3203 14.3197 78.5938 14.834V15H75.7422ZM73.4082 13.0371C73.8249 13.0371 74.209 12.946 74.5605 12.7637C74.9121 12.5749 75.1725 12.3242 75.3418 12.0117V10.1953H74.2871C72.8743 10.1953 72.1224 10.6836 72.0312 11.6602L72.0215 11.8262C72.0215 12.1777 72.1452 12.4674 72.3926 12.6953C72.64 12.9232 72.9785 13.0371 73.4082 13.0371ZM82.9883 4.43359L83.0762 5.61523C83.8249 4.69727 84.8372 4.23828 86.1133 4.23828C87.474 4.23828 88.4082 4.77539 88.916 5.84961C89.6582 4.77539 90.7161 4.23828 92.0898 4.23828C93.2357 4.23828 94.0885 4.57357 94.6484 5.24414C95.2083 5.9082 95.4883 6.91081 95.4883 8.25195V15H92.6562V8.26172C92.6562 7.66276 92.5391 7.22656 92.3047 6.95312C92.0703 6.67318 91.6569 6.5332 91.0645 6.5332C90.2181 6.5332 89.6322 6.93685 89.3066 7.74414L89.3164 15H86.4941V8.27148C86.4941 7.65951 86.3737 7.2168 86.1328 6.94336C85.8919 6.66992 85.4818 6.5332 84.9023 6.5332C84.1016 6.5332 83.5221 6.86523 83.1641 7.5293V15H80.3418V4.43359H82.9883Z" fill="white"/>
</svg>
