<svg width="860" height="328" viewBox="0 0 860 328" fill="none" xmlns="http://www.w3.org/2000/svg">
<rect x="160.853" width="98" height="53" rx="10" fill="#696D97"/>
<path d="M186.884 15.6641H184.224V23H182.753V15.6641H180.116V14.4688H186.884V15.6641ZM189.274 17.3516C189.739 16.8125 190.327 16.543 191.038 16.543C192.39 16.543 193.075 17.3145 193.095 18.8574V23H191.671V18.9102C191.671 18.4727 191.575 18.1641 191.384 17.9844C191.196 17.8008 190.919 17.709 190.552 17.709C189.981 17.709 189.556 17.9629 189.274 18.4707V23H187.851V14H189.274V17.3516ZM201.544 16.1387C201.544 16.834 201.403 17.3438 201.122 17.668C200.845 17.9883 200.39 18.1699 199.757 18.2129V23H198.415L198.38 22.3789C197.962 22.8711 197.368 23.1172 196.599 23.1172C195.911 23.1172 195.39 22.916 195.034 22.5137C194.683 22.1113 194.507 21.5293 194.507 20.7676V16.6602H195.931V20.75C195.931 21.5547 196.265 21.957 196.933 21.957C197.624 21.957 198.091 21.709 198.333 21.2129V16.6602H199.757V17.457C200.038 17.4297 200.241 17.3516 200.366 17.2227C200.495 17.0938 200.569 16.8809 200.589 16.584L200.601 16.1387H201.544ZM197.618 14.1172H199.241L197.618 15.8926H196.476L197.618 14.1172ZM210.591 23H204.854V22.0215L207.696 18.9219C208.106 18.4648 208.397 18.084 208.569 17.7793C208.745 17.4707 208.833 17.1621 208.833 16.8535C208.833 16.4473 208.718 16.1191 208.487 15.8691C208.261 15.6191 207.954 15.4941 207.567 15.4941C207.106 15.4941 206.749 15.6348 206.495 15.916C206.241 16.1973 206.114 16.582 206.114 17.0703H204.69C204.69 16.5508 204.808 16.084 205.042 15.6699C205.28 15.252 205.618 14.9277 206.056 14.6973C206.497 14.4668 207.005 14.3516 207.579 14.3516C208.407 14.3516 209.06 14.5605 209.536 14.9785C210.017 15.3926 210.257 15.9668 210.257 16.7012C210.257 17.127 210.136 17.5742 209.894 18.043C209.655 18.5078 209.263 19.0371 208.716 19.6309L206.63 21.8633H210.591V23Z" fill="white"/>
<rect x="260.853" width="98" height="53" rx="10" fill="#696D97"/>
<path d="M286.884 15.6641H284.224V23H282.753V15.6641H280.116V14.4688H286.884V15.6641ZM289.274 17.3516C289.739 16.8125 290.327 16.543 291.038 16.543C292.39 16.543 293.075 17.3145 293.095 18.8574V23H291.671V18.9102C291.671 18.4727 291.575 18.1641 291.384 17.9844C291.196 17.8008 290.919 17.709 290.552 17.709C289.981 17.709 289.556 17.9629 289.274 18.4707V23H287.851V14H289.274V17.3516ZM301.544 16.1387C301.544 16.834 301.403 17.3438 301.122 17.668C300.845 17.9883 300.39 18.1699 299.757 18.2129V23H298.415L298.38 22.3789C297.962 22.8711 297.368 23.1172 296.599 23.1172C295.911 23.1172 295.39 22.916 295.034 22.5137C294.683 22.1113 294.507 21.5293 294.507 20.7676V16.6602H295.931V20.75C295.931 21.5547 296.265 21.957 296.933 21.957C297.624 21.957 298.091 21.709 298.333 21.2129V16.6602H299.757V17.457C300.038 17.4297 300.241 17.3516 300.366 17.2227C300.495 17.0938 300.569 16.8809 300.589 16.584L300.601 16.1387H301.544ZM297.618 14.1172H299.241L297.618 15.8926H296.476L297.618 14.1172ZM306.501 18.084H307.368C307.806 18.0801 308.151 17.9668 308.405 17.7441C308.663 17.5215 308.792 17.1992 308.792 16.7773C308.792 16.3711 308.685 16.0566 308.47 15.834C308.259 15.6074 307.935 15.4941 307.497 15.4941C307.114 15.4941 306.8 15.6055 306.554 15.8281C306.308 16.0469 306.185 16.334 306.185 16.6895H304.761C304.761 16.252 304.876 15.8535 305.106 15.4941C305.341 15.1348 305.665 14.8555 306.079 14.6562C306.497 14.4531 306.964 14.3516 307.479 14.3516C308.331 14.3516 308.999 14.5664 309.483 14.9961C309.972 15.4219 310.216 16.0156 310.216 16.7773C310.216 17.1602 310.093 17.5215 309.847 17.8613C309.604 18.1973 309.29 18.4512 308.903 18.623C309.372 18.7832 309.728 19.0352 309.97 19.3789C310.216 19.7227 310.339 20.1328 310.339 20.6094C310.339 21.375 310.075 21.9844 309.548 22.4375C309.024 22.8906 308.335 23.1172 307.479 23.1172C306.659 23.1172 305.987 22.8984 305.464 22.4609C304.94 22.0234 304.679 21.4414 304.679 20.7148H306.103C306.103 21.0898 306.228 21.3945 306.478 21.6289C306.731 21.8633 307.071 21.9805 307.497 21.9805C307.938 21.9805 308.286 21.8633 308.54 21.6289C308.794 21.3945 308.921 21.0547 308.921 20.6094C308.921 20.1602 308.788 19.8145 308.522 19.5723C308.257 19.3301 307.862 19.209 307.339 19.209H306.501V18.084Z" fill="white"/>
<rect x="360.853" width="98" height="53" rx="10" fill="#696D97"/>
<path d="M386.884 15.6641H384.224V23H382.753V15.6641H380.116V14.4688H386.884V15.6641ZM389.274 17.3516C389.739 16.8125 390.327 16.543 391.038 16.543C392.39 16.543 393.075 17.3145 393.095 18.8574V23H391.671V18.9102C391.671 18.4727 391.575 18.1641 391.384 17.9844C391.196 17.8008 390.919 17.709 390.552 17.709C389.981 17.709 389.556 17.9629 389.274 18.4707V23H387.851V14H389.274V17.3516ZM401.544 16.1387C401.544 16.834 401.403 17.3438 401.122 17.668C400.845 17.9883 400.39 18.1699 399.757 18.2129V23H398.415L398.38 22.3789C397.962 22.8711 397.368 23.1172 396.599 23.1172C395.911 23.1172 395.39 22.916 395.034 22.5137C394.683 22.1113 394.507 21.5293 394.507 20.7676V16.6602H395.931V20.75C395.931 21.5547 396.265 21.957 396.933 21.957C397.624 21.957 398.091 21.709 398.333 21.2129V16.6602H399.757V17.457C400.038 17.4297 400.241 17.3516 400.366 17.2227C400.495 17.0938 400.569 16.8809 400.589 16.584L400.601 16.1387H401.544ZM397.618 14.1172H399.241L397.618 15.8926H396.476L397.618 14.1172ZM409.671 19.959H410.731V21.1016H409.671V23H408.247V21.1016H404.562L404.521 20.2344L408.2 14.4688H409.671V19.959ZM406.015 19.959H408.247V16.3965L408.142 16.584L406.015 19.959Z" fill="white"/>
<rect x="460.853" width="98" height="53" rx="10" fill="#696D97"/>
<path d="M486.884 15.6641H484.224V23H482.753V15.6641H480.116V14.4688H486.884V15.6641ZM489.274 17.3516C489.739 16.8125 490.327 16.543 491.038 16.543C492.39 16.543 493.075 17.3145 493.095 18.8574V23H491.671V18.9102C491.671 18.4727 491.575 18.1641 491.384 17.9844C491.196 17.8008 490.919 17.709 490.552 17.709C489.981 17.709 489.556 17.9629 489.274 18.4707V23H487.851V14H489.274V17.3516ZM501.544 16.1387C501.544 16.834 501.403 17.3438 501.122 17.668C500.845 17.9883 500.39 18.1699 499.757 18.2129V23H498.415L498.38 22.3789C497.962 22.8711 497.368 23.1172 496.599 23.1172C495.911 23.1172 495.39 22.916 495.034 22.5137C494.683 22.1113 494.507 21.5293 494.507 20.7676V16.6602H495.931V20.75C495.931 21.5547 496.265 21.957 496.933 21.957C497.624 21.957 498.091 21.709 498.333 21.2129V16.6602H499.757V17.457C500.038 17.4297 500.241 17.3516 500.366 17.2227C500.495 17.0938 500.569 16.8809 500.589 16.584L500.601 16.1387H501.544ZM497.618 14.1172H499.241L497.618 15.8926H496.476L497.618 14.1172ZM505.235 18.7695L505.698 14.4688H510.28V15.6992H506.882L506.647 17.7383C507.042 17.5117 507.487 17.3984 507.983 17.3984C508.796 17.3984 509.427 17.6582 509.876 18.1777C510.329 18.6973 510.556 19.3965 510.556 20.2754C510.556 21.1426 510.306 21.834 509.806 22.3496C509.306 22.8613 508.62 23.1172 507.749 23.1172C506.968 23.1172 506.319 22.8965 505.804 22.4551C505.292 22.0098 505.015 21.4238 504.972 20.6973H506.349C506.403 21.1113 506.552 21.4297 506.794 21.6523C507.036 21.8711 507.353 21.9805 507.743 21.9805C508.181 21.9805 508.521 21.8242 508.763 21.5117C509.009 21.1992 509.132 20.7734 509.132 20.2344C509.132 19.7148 508.997 19.3047 508.728 19.0039C508.458 18.6992 508.087 18.5469 507.614 18.5469C507.356 18.5469 507.138 18.582 506.958 18.6523C506.778 18.7188 506.583 18.8516 506.372 19.0508L505.235 18.7695Z" fill="white"/>
<rect x="560.853" width="98" height="53" rx="10" fill="#696D97"/>
<path d="M586.884 15.6641H584.224V23H582.753V15.6641H580.116V14.4688H586.884V15.6641ZM589.274 17.3516C589.739 16.8125 590.327 16.543 591.038 16.543C592.39 16.543 593.075 17.3145 593.095 18.8574V23H591.671V18.9102C591.671 18.4727 591.575 18.1641 591.384 17.9844C591.196 17.8008 590.919 17.709 590.552 17.709C589.981 17.709 589.556 17.9629 589.274 18.4707V23H587.851V14H589.274V17.3516ZM601.544 16.1387C601.544 16.834 601.403 17.3438 601.122 17.668C600.845 17.9883 600.39 18.1699 599.757 18.2129V23H598.415L598.38 22.3789C597.962 22.8711 597.368 23.1172 596.599 23.1172C595.911 23.1172 595.39 22.916 595.034 22.5137C594.683 22.1113 594.507 21.5293 594.507 20.7676V16.6602H595.931V20.75C595.931 21.5547 596.265 21.957 596.933 21.957C597.624 21.957 598.091 21.709 598.333 21.2129V16.6602H599.757V17.457C600.038 17.4297 600.241 17.3516 600.366 17.2227C600.495 17.0938 600.569 16.8809 600.589 16.584L600.601 16.1387H601.544ZM597.618 14.1172H599.241L597.618 15.8926H596.476L597.618 14.1172ZM609.284 14.4277V15.6055H609.108C608.312 15.6172 607.675 15.8359 607.198 16.2617C606.722 16.6875 606.438 17.291 606.349 18.0723C606.806 17.5918 607.39 17.3516 608.101 17.3516C608.854 17.3516 609.448 17.6172 609.882 18.1484C610.319 18.6797 610.538 19.3652 610.538 20.2051C610.538 21.0723 610.282 21.7754 609.771 22.3145C609.263 22.8496 608.595 23.1172 607.767 23.1172C606.915 23.1172 606.224 22.8027 605.692 22.1738C605.165 21.5449 604.901 20.7207 604.901 19.7012V19.2148C604.901 17.7188 605.265 16.5469 605.991 15.6992C606.722 14.8516 607.771 14.4277 609.138 14.4277H609.284ZM607.755 18.5C607.442 18.5 607.155 18.5879 606.894 18.7637C606.636 18.9395 606.446 19.1738 606.325 19.4668V19.9004C606.325 20.5332 606.458 21.0371 606.724 21.4121C606.989 21.7832 607.333 21.9688 607.755 21.9688C608.177 21.9688 608.511 21.8105 608.757 21.4941C609.003 21.1777 609.126 20.7617 609.126 20.2461C609.126 19.7305 609.001 19.3105 608.751 18.9863C608.501 18.6621 608.169 18.5 607.755 18.5Z" fill="white"/>
<rect x="660.853" width="98" height="53" rx="10" fill="#696D97"/>
<path d="M686.884 15.6641H684.224V23H682.753V15.6641H680.116V14.4688H686.884V15.6641ZM689.274 17.3516C689.739 16.8125 690.327 16.543 691.038 16.543C692.39 16.543 693.075 17.3145 693.095 18.8574V23H691.671V18.9102C691.671 18.4727 691.575 18.1641 691.384 17.9844C691.196 17.8008 690.919 17.709 690.552 17.709C689.981 17.709 689.556 17.9629 689.274 18.4707V23H687.851V14H689.274V17.3516ZM701.544 16.1387C701.544 16.834 701.403 17.3438 701.122 17.668C700.845 17.9883 700.39 18.1699 699.757 18.2129V23H698.415L698.38 22.3789C697.962 22.8711 697.368 23.1172 696.599 23.1172C695.911 23.1172 695.39 22.916 695.034 22.5137C694.683 22.1113 694.507 21.5293 694.507 20.7676V16.6602H695.931V20.75C695.931 21.5547 696.265 21.957 696.933 21.957C697.624 21.957 698.091 21.709 698.333 21.2129V16.6602H699.757V17.457C700.038 17.4297 700.241 17.3516 700.366 17.2227C700.495 17.0938 700.569 16.8809 700.589 16.584L700.601 16.1387H701.544ZM697.618 14.1172H699.241L697.618 15.8926H696.476L697.618 14.1172ZM710.532 15.2598L707.122 23H705.628L709.032 15.6113H704.62V14.4688H710.532V15.2598Z" fill="white"/>
<rect x="760.617" width="98.5986" height="53.3589" rx="10" fill="#696D97"/>
<path d="M794.994 20.2227C794.908 21.1328 794.573 21.8438 793.987 22.3555C793.401 22.8633 792.621 23.1172 791.649 23.1172C790.969 23.1172 790.369 22.957 789.85 22.6367C789.334 22.3125 788.936 21.8535 788.655 21.2598C788.373 20.666 788.227 19.9766 788.215 19.1914V18.3945C788.215 17.5898 788.358 16.8809 788.643 16.2676C788.928 15.6543 789.336 15.1816 789.867 14.8496C790.403 14.5176 791.02 14.3516 791.719 14.3516C792.66 14.3516 793.418 14.6074 793.992 15.1191C794.567 15.6309 794.901 16.3535 794.994 17.2871H793.518C793.448 16.6738 793.268 16.2324 792.979 15.9629C792.694 15.6895 792.274 15.5527 791.719 15.5527C791.074 15.5527 790.578 15.7891 790.231 16.2617C789.887 16.7305 789.711 17.4199 789.703 18.3301V19.0859C789.703 20.0078 789.867 20.7109 790.196 21.1953C790.528 21.6797 791.012 21.9219 791.649 21.9219C792.231 21.9219 792.668 21.791 792.961 21.5293C793.254 21.2676 793.44 20.832 793.518 20.2227H794.994ZM803.092 23H801.61L797.807 16.9473V23H796.324V14.4688H797.807L801.621 20.5449V14.4688H803.092V23Z" fill="white"/>
<rect width="159.166" height="53.3589" rx="10" fill="#696D97"/>
<path d="M43.4062 21.8926C43.0977 22.2949 42.6699 22.5996 42.123 22.8066C41.5762 23.0137 40.9551 23.1172 40.2598 23.1172C39.5449 23.1172 38.9121 22.9551 38.3613 22.6309C37.8105 22.3066 37.3848 21.8438 37.084 21.2422C36.7871 20.6367 36.6328 19.9316 36.6211 19.127V18.459C36.6211 17.1699 36.9297 16.1641 37.5469 15.4414C38.1641 14.7148 39.0254 14.3516 40.1309 14.3516C41.0801 14.3516 41.834 14.5859 42.3926 15.0547C42.9512 15.5234 43.2871 16.1992 43.4004 17.082H41.9473C41.7832 16.0547 41.1875 15.541 40.1602 15.541C39.4961 15.541 38.9902 15.7812 38.6426 16.2617C38.2988 16.7383 38.1211 17.4395 38.1094 18.3652V19.0215C38.1094 19.9434 38.3027 20.6602 38.6895 21.1719C39.0801 21.6797 39.6211 21.9336 40.3125 21.9336C41.0703 21.9336 41.6094 21.7617 41.9297 21.418V19.748H40.1719V18.623H43.4062V21.8926ZM46.4121 23H44.9883V16.6602H46.4121V23ZM44.9004 15.0137C44.9004 14.7949 44.9688 14.6133 45.1055 14.4688C45.2461 14.3242 45.4453 14.252 45.7031 14.252C45.9609 14.252 46.1602 14.3242 46.3008 14.4688C46.4414 14.6133 46.5117 14.7949 46.5117 15.0137C46.5117 15.2285 46.4414 15.4082 46.3008 15.5527C46.1602 15.6934 45.9609 15.7637 45.7031 15.7637C45.4453 15.7637 45.2461 15.6934 45.1055 15.5527C44.9688 15.4082 44.9004 15.2285 44.9004 15.0137ZM47.7012 19.7715C47.7012 19.1426 47.8223 18.582 48.0645 18.0898C48.3105 17.5938 48.6562 17.2129 49.1016 16.9473C49.5469 16.6777 50.0586 16.543 50.6367 16.543C51.5156 16.543 52.2246 16.834 52.7637 17.416C52.9707 17.3418 53.1211 17.2012 53.2148 16.9941C53.3086 16.7871 53.3555 16.4609 53.3555 16.0156H54.334C54.334 16.5391 54.248 16.9766 54.0762 17.3281C53.9043 17.6758 53.6172 17.9219 53.2148 18.0664C53.4609 18.5547 53.5879 19.1074 53.5957 19.7246V19.8945C53.5957 20.5195 53.4746 21.0781 53.2324 21.5703C52.9941 22.0625 52.6484 22.4434 52.1953 22.7129C51.7461 22.9824 51.2305 23.1172 50.6484 23.1172C49.7617 23.1172 49.0488 22.8223 48.5098 22.2324C47.9707 21.6426 47.7012 20.8457 47.7012 19.8418V19.7715ZM49.1191 19.8945C49.1191 20.5469 49.2539 21.0586 49.5234 21.4297C49.793 21.7969 50.168 21.9805 50.6484 21.9805C51.1289 21.9805 51.502 21.793 51.7676 21.418C52.0371 21.043 52.1719 20.4941 52.1719 19.7715C52.1719 19.1191 52.0332 18.6094 51.7559 18.2422C51.4824 17.8711 51.1094 17.6855 50.6367 17.6855C50.1719 17.6855 49.8027 17.8711 49.5293 18.2422C49.2559 18.6094 49.1191 19.1602 49.1191 19.8945ZM51.375 15.7754H50.1914L48.6094 14H50.2324L51.375 15.7754ZM59.2852 17.3516C59.75 16.8125 60.3379 16.543 61.0488 16.543C62.4004 16.543 63.0859 17.3145 63.1055 18.8574V23H61.6816V18.9102C61.6816 18.4727 61.5859 18.1641 61.3945 17.9844C61.207 17.8008 60.9297 17.709 60.5625 17.709C59.9922 17.709 59.5664 17.9629 59.2852 18.4707V23H57.8613V14H59.2852V17.3516ZM64.2832 19.7715C64.2832 19.1504 64.4062 18.5918 64.6523 18.0957C64.8984 17.5957 65.2441 17.2129 65.6895 16.9473C66.1348 16.6777 66.6465 16.543 67.2246 16.543C68.0801 16.543 68.7734 16.8184 69.3047 17.3691C69.8398 17.9199 70.1289 18.6504 70.1719 19.5605L70.1777 19.8945C70.1777 20.5195 70.0566 21.0781 69.8145 21.5703C69.5762 22.0625 69.2324 22.4434 68.7832 22.7129C68.3379 22.9824 67.8223 23.1172 67.2363 23.1172C66.3418 23.1172 65.625 22.8203 65.0859 22.2266C64.5508 21.6289 64.2832 20.834 64.2832 19.8418V19.7715ZM65.707 19.8945C65.707 20.5469 65.8418 21.0586 66.1113 21.4297C66.3809 21.7969 66.7559 21.9805 67.2363 21.9805C67.7168 21.9805 68.0898 21.793 68.3555 21.418C68.625 21.043 68.7598 20.4941 68.7598 19.7715C68.7598 19.1309 68.6211 18.623 68.3438 18.248C68.0703 17.873 67.6973 17.6855 67.2246 17.6855C66.7598 17.6855 66.3906 17.8711 66.1172 18.2422C65.8438 18.6094 65.707 19.1602 65.707 19.8945ZM66.4043 24.4238C66.4043 24.2168 66.4727 24.043 66.6094 23.9023C66.75 23.7656 66.9492 23.6973 67.207 23.6973C67.4648 23.6973 67.6641 23.7656 67.8047 23.9023C67.9453 24.043 68.0156 24.2168 68.0156 24.4238C68.0156 24.6309 67.9453 24.8027 67.8047 24.9395C67.6641 25.0762 67.4648 25.1445 67.207 25.1445C66.9492 25.1445 66.75 25.0762 66.6094 24.9395C66.4727 24.8027 66.4043 24.6309 66.4043 24.4238ZM73.9863 21.9805C74.3418 21.9805 74.6367 21.877 74.8711 21.6699C75.1055 21.4629 75.2305 21.207 75.2461 20.9023H76.5879C76.5723 21.2969 76.4492 21.666 76.2188 22.0098C75.9883 22.3496 75.6758 22.6191 75.2812 22.8184C74.8867 23.0176 74.4609 23.1172 74.0039 23.1172C73.1172 23.1172 72.4141 22.8301 71.8945 22.2559C71.375 21.6816 71.1152 20.8887 71.1152 19.877V19.7305C71.1152 18.7656 71.373 17.9941 71.8887 17.416C72.4043 16.834 73.1074 16.543 73.998 16.543C74.752 16.543 75.3652 16.7637 75.8379 17.2051C76.3145 17.6426 76.5645 18.2188 76.5879 18.9336H75.2461C75.2305 18.5703 75.1055 18.2715 74.8711 18.0371C74.6406 17.8027 74.3457 17.6855 73.9863 17.6855C73.5254 17.6855 73.1699 17.8535 72.9199 18.1895C72.6699 18.5215 72.543 19.0273 72.5391 19.707V19.9355C72.5391 20.623 72.6621 21.1367 72.9082 21.4766C73.1582 21.8125 73.5176 21.9805 73.9863 21.9805Z" fill="white"/>
<rect y="54.7629" width="159.166" height="53.3589" rx="10" fill="#696D97"/>
<path d="M44.3164 70.0227L40.9062 77.7629H39.4121L42.8164 70.3743H38.4043V69.2317H44.3164V70.0227ZM46.9531 72.1145C47.418 71.5754 48.0059 71.3059 48.7168 71.3059C50.0684 71.3059 50.7539 72.0774 50.7734 73.6204V77.7629H49.3496V73.6731C49.3496 73.2356 49.2539 72.927 49.0625 72.7473C48.875 72.5637 48.5977 72.4719 48.2305 72.4719C47.6602 72.4719 47.2344 72.7258 46.9531 73.2336V77.7629H45.5293V68.7629H46.9531V72.1145ZM57.9688 74.7102H54.8926V73.5618H57.9688V74.7102ZM66.0781 74.1946C65.6016 74.6985 65.0449 74.9504 64.4082 74.9504C63.6582 74.9504 63.0605 74.6887 62.6152 74.1653C62.1699 73.6379 61.9473 72.9465 61.9473 72.0911C61.9473 71.5286 62.0605 71.0188 62.2871 70.5618C62.5137 70.1047 62.8359 69.7493 63.2539 69.4954C63.6719 69.2415 64.1562 69.1145 64.707 69.1145C65.5664 69.1145 66.248 69.4348 66.752 70.0754C67.2559 70.7161 67.5078 71.5735 67.5078 72.6477V73.0461C67.5078 74.5852 67.1602 75.759 66.4648 76.5676C65.7695 77.3762 64.7324 77.7864 63.3535 77.7981H63.1836V76.6204H63.3887C64.2285 76.6086 64.873 76.4075 65.3223 76.0168C65.7715 75.6223 66.0234 75.0149 66.0781 74.1946ZM64.707 73.8372C64.9922 73.8372 65.2598 73.7551 65.5098 73.5911C65.7598 73.427 65.9531 73.2004 66.0898 72.9114V72.3547C66.0898 71.7258 65.9609 71.22 65.7031 70.8372C65.4453 70.4543 65.1113 70.2629 64.7012 70.2629C64.291 70.2629 63.9629 70.4329 63.7168 70.7727C63.4746 71.1086 63.3535 71.5344 63.3535 72.05C63.3535 72.5852 63.4766 73.0168 63.7227 73.345C63.9688 73.6731 64.2969 73.8372 64.707 73.8372ZM70.3555 72.1145C70.8203 71.5754 71.4082 71.3059 72.1191 71.3059C73.4707 71.3059 74.1562 72.0774 74.1758 73.6204V77.7629H72.752V73.6731C72.752 73.2356 72.6562 72.927 72.4648 72.7473C72.2773 72.5637 72 72.4719 71.6328 72.4719C71.0625 72.4719 70.6367 72.7258 70.3555 73.2336V77.7629H68.9316V68.7629H70.3555V72.1145Z" fill="white"/>
<rect x="160.575" y="54.7629" width="98.5986" height="53.3589" rx="10" fill="#696D97"/>
<rect x="182.575" y="60.7629" width="25" height="25" fill="#C4C4C4"/>
<rect x="160.575" y="164.289" width="98.5986" height="53.3589" rx="10" fill="#696D97"/>
<rect x="182.575" y="170.289" width="25" height="25" fill="#C4C4C4"/>
<rect width="70" height="38" transform="translate(160.575 164.289)" fill="#696D97"/>
<rect x="182.575" y="170.289" width="25" height="25" fill="#C4C4C4"/>
<rect width="70" height="38" transform="translate(160.575 164.289)" fill="#696D97"/>
<rect x="182.575" y="170.289" width="25" height="25" fill="#C4C4C4"/>
<rect width="70" height="38" transform="translate(160.575 164.289)" fill="#696D97"/>
<rect x="182.575" y="170.289" width="25" height="25" fill="#C4C4C4"/>
<rect width="70" height="38" transform="translate(160.575 164.289)" fill="#696D97"/>
<rect x="182.575" y="170.289" width="25" height="25" fill="#C4C4C4"/>
<rect width="70" height="38" transform="translate(160.575 164.289)" fill="#696D97"/>
<rect x="182.575" y="170.289" width="25" height="25" fill="#C4C4C4"/>
<rect width="70" height="38" transform="translate(160.575 164.289)" fill="#696D97"/>
<rect x="182.575" y="170.289" width="25" height="25" fill="#C4C4C4"/>
<rect width="70" height="38" transform="translate(160.575 164.289)" fill="#696D97"/>
<rect x="182.575" y="170.289" width="25" height="25" fill="#C4C4C4"/>
<rect width="70" height="38" transform="translate(160.575 164.289)" fill="#696D97"/>
<rect x="182.575" y="170.289" width="25" height="25" fill="#C4C4C4"/>
<rect width="70" height="38" transform="translate(160.575 164.289)" fill="#696D97"/>
<rect x="182.575" y="170.289" width="25" height="25" fill="#C4C4C4"/>
<rect width="70" height="38" transform="translate(160.575 164.289)" fill="#696D97"/>
<rect x="182.575" y="170.289" width="25" height="25" fill="#C4C4C4"/>
<rect width="70" height="38" transform="translate(160.575 164.289)" fill="#696D97"/>
<rect x="182.575" y="170.289" width="25" height="25" fill="#C4C4C4"/>
<rect x="160.575" y="219.052" width="98.5986" height="53.3589" rx="10" fill="#696D97"/>
<rect x="182.575" y="225.052" width="25" height="25" fill="#C4C4C4"/>
<rect width="70" height="38" transform="translate(160.575 219.052)" fill="#696D97"/>
<rect x="182.575" y="225.052" width="25" height="25" fill="#C4C4C4"/>
<rect width="70" height="38" transform="translate(160.575 219.052)" fill="#696D97"/>
<rect x="182.575" y="225.052" width="25" height="25" fill="#C4C4C4"/>
<rect width="70" height="38" transform="translate(160.575 219.052)" fill="#696D97"/>
<rect x="182.575" y="225.052" width="25" height="25" fill="#C4C4C4"/>
<rect width="70" height="38" transform="translate(160.575 219.052)" fill="#696D97"/>
<rect x="182.575" y="225.052" width="25" height="25" fill="#C4C4C4"/>
<rect width="70" height="38" transform="translate(160.575 219.052)" fill="#696D97"/>
<rect x="182.575" y="225.052" width="25" height="25" fill="#C4C4C4"/>
<rect width="70" height="38" transform="translate(160.575 219.052)" fill="#696D97"/>
<rect x="182.575" y="225.052" width="25" height="25" fill="#C4C4C4"/>
<rect width="70" height="38" transform="translate(160.575 219.052)" fill="#696D97"/>
<rect x="182.575" y="225.052" width="25" height="25" fill="#C4C4C4"/>
<rect width="70" height="38" transform="translate(160.575 219.052)" fill="#696D97"/>
<rect x="182.575" y="225.052" width="25" height="25" fill="#C4C4C4"/>
<rect width="70" height="38" transform="translate(160.575 219.052)" fill="#696D97"/>
<rect x="182.575" y="225.052" width="25" height="25" fill="#C4C4C4"/>
<rect width="70" height="38" transform="translate(160.575 219.052)" fill="#696D97"/>
<rect x="182.575" y="225.052" width="25" height="25" fill="#C4C4C4"/>
<rect width="70" height="38" transform="translate(160.575 219.052)" fill="#696D97"/>
<rect x="182.575" y="225.052" width="25" height="25" fill="#C4C4C4"/>
<rect x="160.575" y="273.815" width="98.5986" height="53.3589" rx="10" fill="#696D97"/>
<rect x="182.575" y="279.815" width="25" height="25" fill="#C4C4C4"/>
<rect width="70" height="38" transform="translate(160.575 273.815)" fill="#696D97"/>
<rect x="182.575" y="279.815" width="25" height="25" fill="#C4C4C4"/>
<rect width="70" height="38" transform="translate(160.575 273.815)" fill="#696D97"/>
<rect x="182.575" y="279.815" width="25" height="25" fill="#C4C4C4"/>
<rect width="70" height="38" transform="translate(160.575 273.815)" fill="#696D97"/>
<rect x="182.575" y="279.815" width="25" height="25" fill="#C4C4C4"/>
<rect width="70" height="38" transform="translate(160.575 273.815)" fill="#696D97"/>
<rect x="182.575" y="279.815" width="25" height="25" fill="#C4C4C4"/>
<rect width="70" height="38" transform="translate(160.575 273.815)" fill="#696D97"/>
<rect x="182.575" y="279.815" width="25" height="25" fill="#C4C4C4"/>
<rect width="70" height="38" transform="translate(160.575 273.815)" fill="#696D97"/>
<rect x="182.575" y="279.815" width="25" height="25" fill="#C4C4C4"/>
<rect width="70" height="38" transform="translate(160.575 273.815)" fill="#696D97"/>
<rect x="182.575" y="279.815" width="25" height="25" fill="#C4C4C4"/>
<rect width="70" height="38" transform="translate(160.575 273.815)" fill="#696D97"/>
<rect x="182.575" y="279.815" width="25" height="25" fill="#C4C4C4"/>
<rect width="70" height="38" transform="translate(160.575 273.815)" fill="#696D97"/>
<rect x="182.575" y="279.815" width="25" height="25" fill="#C4C4C4"/>
<rect width="70" height="38" transform="translate(160.575 273.815)" fill="#696D97"/>
<rect x="182.575" y="279.815" width="25" height="25" fill="#C4C4C4"/>
<rect width="70" height="38" transform="translate(160.575 273.815)" fill="#696D97"/>
<rect x="182.575" y="279.815" width="25" height="25" fill="#C4C4C4"/>
<rect x="160.575" y="109.526" width="98.5986" height="53.3589" rx="10" fill="#696D97"/>
<rect x="182.575" y="115.526" width="25" height="25" fill="#C4C4C4"/>
<rect x="460.596" y="54.7629" width="98.5986" height="53.3589" rx="10" fill="#696D97"/>
<rect x="482.596" y="60.7629" width="25" height="25" fill="#C4C4C4"/>
<rect x="460.596" y="164.289" width="98.5986" height="53.3589" rx="10" fill="#696D97"/>
<rect x="482.596" y="170.289" width="25" height="25" fill="#C4C4C4"/>
<rect width="70" height="38" transform="translate(460.596 164.289)" fill="#696D97"/>
<rect x="482.596" y="170.289" width="25" height="25" fill="#C4C4C4"/>
<rect width="70" height="38" transform="translate(460.596 164.289)" fill="#696D97"/>
<rect x="482.596" y="170.289" width="25" height="25" fill="#C4C4C4"/>
<rect width="70" height="38" transform="translate(460.596 164.289)" fill="#696D97"/>
<rect x="482.596" y="170.289" width="25" height="25" fill="#C4C4C4"/>
<rect width="70" height="38" transform="translate(460.596 164.289)" fill="#696D97"/>
<rect x="482.596" y="170.289" width="25" height="25" fill="#C4C4C4"/>
<rect width="70" height="38" transform="translate(460.596 164.289)" fill="#696D97"/>
<rect x="482.596" y="170.289" width="25" height="25" fill="#C4C4C4"/>
<rect width="70" height="38" transform="translate(460.596 164.289)" fill="#696D97"/>
<rect x="482.596" y="170.289" width="25" height="25" fill="#C4C4C4"/>
<rect width="70" height="38" transform="translate(460.596 164.289)" fill="#696D97"/>
<rect x="482.596" y="170.289" width="25" height="25" fill="#C4C4C4"/>
<rect width="70" height="38" transform="translate(460.596 164.289)" fill="#696D97"/>
<rect x="482.596" y="170.289" width="25" height="25" fill="#C4C4C4"/>
<rect width="70" height="38" transform="translate(460.596 164.289)" fill="#696D97"/>
<rect x="482.596" y="170.289" width="25" height="25" fill="#C4C4C4"/>
<rect width="70" height="38" transform="translate(460.596 164.289)" fill="#696D97"/>
<rect x="482.596" y="170.289" width="25" height="25" fill="#C4C4C4"/>
<rect width="70" height="38" transform="translate(460.596 164.289)" fill="#696D97"/>
<rect x="482.596" y="170.289" width="25" height="25" fill="#C4C4C4"/>
<rect x="460.596" y="219.052" width="98.5986" height="53.3589" rx="10" fill="#696D97"/>
<rect x="482.596" y="225.052" width="25" height="25" fill="#C4C4C4"/>
<rect width="70" height="38" transform="translate(460.596 219.052)" fill="#696D97"/>
<rect x="482.596" y="225.052" width="25" height="25" fill="#C4C4C4"/>
<rect width="70" height="38" transform="translate(460.596 219.052)" fill="#696D97"/>
<rect x="482.596" y="225.052" width="25" height="25" fill="#C4C4C4"/>
<rect width="70" height="38" transform="translate(460.596 219.052)" fill="#696D97"/>
<rect x="482.596" y="225.052" width="25" height="25" fill="#C4C4C4"/>
<rect width="70" height="38" transform="translate(460.596 219.052)" fill="#696D97"/>
<rect x="482.596" y="225.052" width="25" height="25" fill="#C4C4C4"/>
<rect width="70" height="38" transform="translate(460.596 219.052)" fill="#696D97"/>
<rect x="482.596" y="225.052" width="25" height="25" fill="#C4C4C4"/>
<rect width="70" height="38" transform="translate(460.596 219.052)" fill="#696D97"/>
<rect x="482.596" y="225.052" width="25" height="25" fill="#C4C4C4"/>
<rect width="70" height="38" transform="translate(460.596 219.052)" fill="#696D97"/>
<rect x="482.596" y="225.052" width="25" height="25" fill="#C4C4C4"/>
<rect width="70" height="38" transform="translate(460.596 219.052)" fill="#696D97"/>
<rect x="482.596" y="225.052" width="25" height="25" fill="#C4C4C4"/>
<rect width="70" height="38" transform="translate(460.596 219.052)" fill="#696D97"/>
<rect x="482.596" y="225.052" width="25" height="25" fill="#C4C4C4"/>
<rect width="70" height="38" transform="translate(460.596 219.052)" fill="#696D97"/>
<rect x="482.596" y="225.052" width="25" height="25" fill="#C4C4C4"/>
<rect width="70" height="38" transform="translate(460.596 219.052)" fill="#696D97"/>
<rect x="482.596" y="225.052" width="25" height="25" fill="#C4C4C4"/>
<rect x="460.596" y="273.815" width="98.5986" height="53.3589" rx="10" fill="#696D97"/>
<rect x="482.596" y="279.815" width="25" height="25" fill="#C4C4C4"/>
<rect width="70" height="38" transform="translate(460.596 273.815)" fill="#696D97"/>
<rect x="482.596" y="279.815" width="25" height="25" fill="#C4C4C4"/>
<rect width="70" height="38" transform="translate(460.596 273.815)" fill="#696D97"/>
<rect x="482.596" y="279.815" width="25" height="25" fill="#C4C4C4"/>
<rect width="70" height="38" transform="translate(460.596 273.815)" fill="#696D97"/>
<rect x="482.596" y="279.815" width="25" height="25" fill="#C4C4C4"/>
<rect width="70" height="38" transform="translate(460.596 273.815)" fill="#696D97"/>
<rect x="482.596" y="279.815" width="25" height="25" fill="#C4C4C4"/>
<rect width="70" height="38" transform="translate(460.596 273.815)" fill="#696D97"/>
<rect x="482.596" y="279.815" width="25" height="25" fill="#C4C4C4"/>
<rect width="70" height="38" transform="translate(460.596 273.815)" fill="#696D97"/>
<rect x="482.596" y="279.815" width="25" height="25" fill="#C4C4C4"/>
<rect width="70" height="38" transform="translate(460.596 273.815)" fill="#696D97"/>
<rect x="482.596" y="279.815" width="25" height="25" fill="#C4C4C4"/>
<rect width="70" height="38" transform="translate(460.596 273.815)" fill="#696D97"/>
<rect x="482.596" y="279.815" width="25" height="25" fill="#C4C4C4"/>
<rect width="70" height="38" transform="translate(460.596 273.815)" fill="#696D97"/>
<rect x="482.596" y="279.815" width="25" height="25" fill="#C4C4C4"/>
<rect width="70" height="38" transform="translate(460.596 273.815)" fill="#696D97"/>
<rect x="482.596" y="279.815" width="25" height="25" fill="#C4C4C4"/>
<rect width="70" height="38" transform="translate(460.596 273.815)" fill="#696D97"/>
<rect x="482.596" y="279.815" width="25" height="25" fill="#C4C4C4"/>
<rect x="460.596" y="109.526" width="98.5986" height="53.3589" rx="10" fill="#696D97"/>
<rect x="482.596" y="115.526" width="25" height="25" fill="#C4C4C4"/>
<rect x="560.603" y="54.7629" width="98.5986" height="53.3589" rx="10" fill="#696D97"/>
<rect x="582.603" y="60.7629" width="25" height="25" fill="#C4C4C4"/>
<rect x="560.603" y="164.289" width="98.5986" height="53.3589" rx="10" fill="#696D97"/>
<rect x="582.603" y="170.289" width="25" height="25" fill="#C4C4C4"/>
<rect width="70" height="38" transform="translate(560.603 164.289)" fill="#696D97"/>
<rect x="582.603" y="170.289" width="25" height="25" fill="#C4C4C4"/>
<rect width="70" height="38" transform="translate(560.603 164.289)" fill="#696D97"/>
<rect x="582.603" y="170.289" width="25" height="25" fill="#C4C4C4"/>
<rect width="70" height="38" transform="translate(560.603 164.289)" fill="#696D97"/>
<rect x="582.603" y="170.289" width="25" height="25" fill="#C4C4C4"/>
<rect width="70" height="38" transform="translate(560.603 164.289)" fill="#696D97"/>
<rect x="582.603" y="170.289" width="25" height="25" fill="#C4C4C4"/>
<rect width="70" height="38" transform="translate(560.603 164.289)" fill="#696D97"/>
<rect x="582.603" y="170.289" width="25" height="25" fill="#C4C4C4"/>
<rect width="70" height="38" transform="translate(560.603 164.289)" fill="#696D97"/>
<rect x="582.603" y="170.289" width="25" height="25" fill="#C4C4C4"/>
<rect width="70" height="38" transform="translate(560.603 164.289)" fill="#696D97"/>
<rect x="582.603" y="170.289" width="25" height="25" fill="#C4C4C4"/>
<rect width="70" height="38" transform="translate(560.603 164.289)" fill="#696D97"/>
<rect x="582.603" y="170.289" width="25" height="25" fill="#C4C4C4"/>
<rect width="70" height="38" transform="translate(560.603 164.289)" fill="#696D97"/>
<rect x="582.603" y="170.289" width="25" height="25" fill="#C4C4C4"/>
<rect width="70" height="38" transform="translate(560.603 164.289)" fill="#696D97"/>
<rect x="582.603" y="170.289" width="25" height="25" fill="#C4C4C4"/>
<rect width="70" height="38" transform="translate(560.603 164.289)" fill="#696D97"/>
<rect x="582.603" y="170.289" width="25" height="25" fill="#C4C4C4"/>
<rect x="560.603" y="219.052" width="98.5986" height="53.3589" rx="10" fill="#696D97"/>
<rect x="582.603" y="225.052" width="25" height="25" fill="#C4C4C4"/>
<rect width="70" height="38" transform="translate(560.603 219.052)" fill="#696D97"/>
<rect x="582.603" y="225.052" width="25" height="25" fill="#C4C4C4"/>
<rect width="70" height="38" transform="translate(560.603 219.052)" fill="#696D97"/>
<rect x="582.603" y="225.052" width="25" height="25" fill="#C4C4C4"/>
<rect width="70" height="38" transform="translate(560.603 219.052)" fill="#696D97"/>
<rect x="582.603" y="225.052" width="25" height="25" fill="#C4C4C4"/>
<rect width="70" height="38" transform="translate(560.603 219.052)" fill="#696D97"/>
<rect x="582.603" y="225.052" width="25" height="25" fill="#C4C4C4"/>
<rect width="70" height="38" transform="translate(560.603 219.052)" fill="#696D97"/>
<rect x="582.603" y="225.052" width="25" height="25" fill="#C4C4C4"/>
<rect width="70" height="38" transform="translate(560.603 219.052)" fill="#696D97"/>
<rect x="582.603" y="225.052" width="25" height="25" fill="#C4C4C4"/>
<rect width="70" height="38" transform="translate(560.603 219.052)" fill="#696D97"/>
<rect x="582.603" y="225.052" width="25" height="25" fill="#C4C4C4"/>
<rect width="70" height="38" transform="translate(560.603 219.052)" fill="#696D97"/>
<rect x="582.603" y="225.052" width="25" height="25" fill="#C4C4C4"/>
<rect width="70" height="38" transform="translate(560.603 219.052)" fill="#696D97"/>
<rect x="582.603" y="225.052" width="25" height="25" fill="#C4C4C4"/>
<rect width="70" height="38" transform="translate(560.603 219.052)" fill="#696D97"/>
<rect x="582.603" y="225.052" width="25" height="25" fill="#C4C4C4"/>
<rect width="70" height="38" transform="translate(560.603 219.052)" fill="#696D97"/>
<rect x="582.603" y="225.052" width="25" height="25" fill="#C4C4C4"/>
<rect x="560.603" y="273.815" width="98.5986" height="53.3589" rx="10" fill="#696D97"/>
<rect x="582.603" y="279.815" width="25" height="25" fill="#C4C4C4"/>
<rect width="70" height="38" transform="translate(560.603 273.815)" fill="#696D97"/>
<rect x="582.603" y="279.815" width="25" height="25" fill="#C4C4C4"/>
<rect width="70" height="38" transform="translate(560.603 273.815)" fill="#696D97"/>
<rect x="582.603" y="279.815" width="25" height="25" fill="#C4C4C4"/>
<rect width="70" height="38" transform="translate(560.603 273.815)" fill="#696D97"/>
<rect x="582.603" y="279.815" width="25" height="25" fill="#C4C4C4"/>
<rect width="70" height="38" transform="translate(560.603 273.815)" fill="#696D97"/>
<rect x="582.603" y="279.815" width="25" height="25" fill="#C4C4C4"/>
<rect width="70" height="38" transform="translate(560.603 273.815)" fill="#696D97"/>
<rect x="582.603" y="279.815" width="25" height="25" fill="#C4C4C4"/>
<rect width="70" height="38" transform="translate(560.603 273.815)" fill="#696D97"/>
<rect x="582.603" y="279.815" width="25" height="25" fill="#C4C4C4"/>
<rect width="70" height="38" transform="translate(560.603 273.815)" fill="#696D97"/>
<rect x="582.603" y="279.815" width="25" height="25" fill="#C4C4C4"/>
<rect width="70" height="38" transform="translate(560.603 273.815)" fill="#696D97"/>
<rect x="582.603" y="279.815" width="25" height="25" fill="#C4C4C4"/>
<rect width="70" height="38" transform="translate(560.603 273.815)" fill="#696D97"/>
<rect x="582.603" y="279.815" width="25" height="25" fill="#C4C4C4"/>
<rect width="70" height="38" transform="translate(560.603 273.815)" fill="#696D97"/>
<rect x="582.603" y="279.815" width="25" height="25" fill="#C4C4C4"/>
<rect width="70" height="38" transform="translate(560.603 273.815)" fill="#696D97"/>
<rect x="582.603" y="279.815" width="25" height="25" fill="#C4C4C4"/>
<rect x="560.603" y="109.526" width="98.5986" height="53.3589" rx="10" fill="#696D97"/>
<rect x="582.603" y="115.526" width="25" height="25" fill="#C4C4C4"/>
<rect x="660.61" y="164.289" width="98.5986" height="53.3589" rx="10" fill="#696D97"/>
<rect x="682.61" y="170.289" width="25" height="25" fill="#C4C4C4"/>
<rect width="70" height="38" transform="translate(660.61 164.289)" fill="#696D97"/>
<rect x="682.61" y="170.289" width="25" height="25" fill="#C4C4C4"/>
<rect width="70" height="38" transform="translate(660.61 164.289)" fill="#696D97"/>
<rect x="682.61" y="170.289" width="25" height="25" fill="#C4C4C4"/>
<rect width="70" height="38" transform="translate(660.61 164.289)" fill="#696D97"/>
<rect x="682.61" y="170.289" width="25" height="25" fill="#C4C4C4"/>
<rect width="70" height="38" transform="translate(660.61 164.289)" fill="#696D97"/>
<rect x="682.61" y="170.289" width="25" height="25" fill="#C4C4C4"/>
<rect width="70" height="38" transform="translate(660.61 164.289)" fill="#696D97"/>
<rect x="682.61" y="170.289" width="25" height="25" fill="#C4C4C4"/>
<rect width="70" height="38" transform="translate(660.61 164.289)" fill="#696D97"/>
<rect x="682.61" y="170.289" width="25" height="25" fill="#C4C4C4"/>
<rect width="70" height="38" transform="translate(660.61 164.289)" fill="#696D97"/>
<rect x="682.61" y="170.289" width="25" height="25" fill="#C4C4C4"/>
<rect width="70" height="38" transform="translate(660.61 164.289)" fill="#696D97"/>
<rect x="682.61" y="170.289" width="25" height="25" fill="#C4C4C4"/>
<rect width="70" height="38" transform="translate(660.61 164.289)" fill="#696D97"/>
<rect x="682.61" y="170.289" width="25" height="25" fill="#C4C4C4"/>
<rect width="70" height="38" transform="translate(660.61 164.289)" fill="#696D97"/>
<rect x="682.61" y="170.289" width="25" height="25" fill="#C4C4C4"/>
<rect width="70" height="38" transform="translate(660.61 164.289)" fill="#696D97"/>
<rect x="682.61" y="170.289" width="25" height="25" fill="#C4C4C4"/>
<rect x="660.61" y="54.7629" width="98.5986" height="53.3589" rx="10" fill="#696D97"/>
<rect x="682.61" y="60.7629" width="25" height="25" fill="#C4C4C4"/>
<rect x="660.61" y="219.052" width="98.5986" height="53.3589" rx="10" fill="#696D97"/>
<rect x="682.61" y="225.052" width="25" height="25" fill="#C4C4C4"/>
<rect width="70" height="38" transform="translate(660.61 219.052)" fill="#696D97"/>
<rect x="682.61" y="225.052" width="25" height="25" fill="#C4C4C4"/>
<rect width="70" height="38" transform="translate(660.61 219.052)" fill="#696D97"/>
<rect x="682.61" y="225.052" width="25" height="25" fill="#C4C4C4"/>
<rect width="70" height="38" transform="translate(660.61 219.052)" fill="#696D97"/>
<rect x="682.61" y="225.052" width="25" height="25" fill="#C4C4C4"/>
<rect width="70" height="38" transform="translate(660.61 219.052)" fill="#696D97"/>
<rect x="682.61" y="225.052" width="25" height="25" fill="#C4C4C4"/>
<rect width="70" height="38" transform="translate(660.61 219.052)" fill="#696D97"/>
<rect x="682.61" y="225.052" width="25" height="25" fill="#C4C4C4"/>
<rect width="70" height="38" transform="translate(660.61 219.052)" fill="#696D97"/>
<rect x="682.61" y="225.052" width="25" height="25" fill="#C4C4C4"/>
<rect width="70" height="38" transform="translate(660.61 219.052)" fill="#696D97"/>
<rect x="682.61" y="225.052" width="25" height="25" fill="#C4C4C4"/>
<rect width="70" height="38" transform="translate(660.61 219.052)" fill="#696D97"/>
<rect x="682.61" y="225.052" width="25" height="25" fill="#C4C4C4"/>
<rect width="70" height="38" transform="translate(660.61 219.052)" fill="#696D97"/>
<rect x="682.61" y="225.052" width="25" height="25" fill="#C4C4C4"/>
<rect width="70" height="38" transform="translate(660.61 219.052)" fill="#696D97"/>
<rect x="682.61" y="225.052" width="25" height="25" fill="#C4C4C4"/>
<rect width="70" height="38" transform="translate(660.61 219.052)" fill="#696D97"/>
<rect x="682.61" y="225.052" width="25" height="25" fill="#C4C4C4"/>
<rect x="660.61" y="273.815" width="98.5986" height="53.3589" rx="10" fill="#696D97"/>
<rect x="682.61" y="279.815" width="25" height="25" fill="#C4C4C4"/>
<rect width="70" height="38" transform="translate(660.61 273.815)" fill="#696D97"/>
<rect x="682.61" y="279.815" width="25" height="25" fill="#C4C4C4"/>
<rect width="70" height="38" transform="translate(660.61 273.815)" fill="#696D97"/>
<rect x="682.61" y="279.815" width="25" height="25" fill="#C4C4C4"/>
<rect width="70" height="38" transform="translate(660.61 273.815)" fill="#696D97"/>
<rect x="682.61" y="279.815" width="25" height="25" fill="#C4C4C4"/>
<rect width="70" height="38" transform="translate(660.61 273.815)" fill="#696D97"/>
<rect x="682.61" y="279.815" width="25" height="25" fill="#C4C4C4"/>
<rect width="70" height="38" transform="translate(660.61 273.815)" fill="#696D97"/>
<rect x="682.61" y="279.815" width="25" height="25" fill="#C4C4C4"/>
<rect width="70" height="38" transform="translate(660.61 273.815)" fill="#696D97"/>
<rect x="682.61" y="279.815" width="25" height="25" fill="#C4C4C4"/>
<rect width="70" height="38" transform="translate(660.61 273.815)" fill="#696D97"/>
<rect x="682.61" y="279.815" width="25" height="25" fill="#C4C4C4"/>
<rect width="70" height="38" transform="translate(660.61 273.815)" fill="#696D97"/>
<rect x="682.61" y="279.815" width="25" height="25" fill="#C4C4C4"/>
<rect width="70" height="38" transform="translate(660.61 273.815)" fill="#696D97"/>
<rect x="682.61" y="279.815" width="25" height="25" fill="#C4C4C4"/>
<rect width="70" height="38" transform="translate(660.61 273.815)" fill="#696D97"/>
<rect x="682.61" y="279.815" width="25" height="25" fill="#C4C4C4"/>
<rect width="70" height="38" transform="translate(660.61 273.815)" fill="#696D97"/>
<rect x="682.61" y="279.815" width="25" height="25" fill="#C4C4C4"/>
<rect x="660.61" y="109.526" width="98.5986" height="53.3589" rx="10" fill="#696D97"/>
<rect x="682.61" y="115.526" width="25" height="25" fill="#C4C4C4"/>
<rect x="760.617" y="164.289" width="98.5986" height="53.3589" rx="10" fill="#696D97"/>
<rect x="782.617" y="170.289" width="25" height="25" fill="#C4C4C4"/>
<rect width="70" height="38" transform="translate(760.617 164.289)" fill="#696D97"/>
<rect x="782.617" y="170.289" width="25" height="25" fill="#C4C4C4"/>
<rect width="70" height="38" transform="translate(760.617 164.289)" fill="#696D97"/>
<rect x="782.617" y="170.289" width="25" height="25" fill="#C4C4C4"/>
<rect width="70" height="38" transform="translate(760.617 164.289)" fill="#696D97"/>
<rect x="782.617" y="170.289" width="25" height="25" fill="#C4C4C4"/>
<rect width="70" height="38" transform="translate(760.617 164.289)" fill="#696D97"/>
<rect x="782.617" y="170.289" width="25" height="25" fill="#C4C4C4"/>
<rect width="70" height="38" transform="translate(760.617 164.289)" fill="#696D97"/>
<rect x="782.617" y="170.289" width="25" height="25" fill="#C4C4C4"/>
<rect width="70" height="38" transform="translate(760.617 164.289)" fill="#696D97"/>
<rect x="782.617" y="170.289" width="25" height="25" fill="#C4C4C4"/>
<rect width="70" height="38" transform="translate(760.617 164.289)" fill="#696D97"/>
<rect x="782.617" y="170.289" width="25" height="25" fill="#C4C4C4"/>
<rect width="70" height="38" transform="translate(760.617 164.289)" fill="#696D97"/>
<rect x="782.617" y="170.289" width="25" height="25" fill="#C4C4C4"/>
<rect width="70" height="38" transform="translate(760.617 164.289)" fill="#696D97"/>
<rect x="782.617" y="170.289" width="25" height="25" fill="#C4C4C4"/>
<rect width="70" height="38" transform="translate(760.617 164.289)" fill="#696D97"/>
<rect x="782.617" y="170.289" width="25" height="25" fill="#C4C4C4"/>
<rect width="70" height="38" transform="translate(760.617 164.289)" fill="#696D97"/>
<rect x="782.617" y="170.289" width="25" height="25" fill="#C4C4C4"/>
<rect x="760.617" y="54.7629" width="98.5986" height="53.3589" rx="10" fill="#696D97"/>
<rect x="782.617" y="60.7629" width="25" height="25" fill="#C4C4C4"/>
<rect x="760.617" y="219.052" width="98.5986" height="53.3589" rx="10" fill="#696D97"/>
<rect x="782.617" y="225.052" width="25" height="25" fill="#C4C4C4"/>
<rect width="70" height="38" transform="translate(760.617 219.052)" fill="#696D97"/>
<rect x="782.617" y="225.052" width="25" height="25" fill="#C4C4C4"/>
<rect width="70" height="38" transform="translate(760.617 219.052)" fill="#696D97"/>
<rect x="782.617" y="225.052" width="25" height="25" fill="#C4C4C4"/>
<rect width="70" height="38" transform="translate(760.617 219.052)" fill="#696D97"/>
<rect x="782.617" y="225.052" width="25" height="25" fill="#C4C4C4"/>
<rect width="70" height="38" transform="translate(760.617 219.052)" fill="#696D97"/>
<rect x="782.617" y="225.052" width="25" height="25" fill="#C4C4C4"/>
<rect width="70" height="38" transform="translate(760.617 219.052)" fill="#696D97"/>
<rect x="782.617" y="225.052" width="25" height="25" fill="#C4C4C4"/>
<rect width="70" height="38" transform="translate(760.617 219.052)" fill="#696D97"/>
<rect x="782.617" y="225.052" width="25" height="25" fill="#C4C4C4"/>
<rect width="70" height="38" transform="translate(760.617 219.052)" fill="#696D97"/>
<rect x="782.617" y="225.052" width="25" height="25" fill="#C4C4C4"/>
<rect width="70" height="38" transform="translate(760.617 219.052)" fill="#696D97"/>
<rect x="782.617" y="225.052" width="25" height="25" fill="#C4C4C4"/>
<rect width="70" height="38" transform="translate(760.617 219.052)" fill="#696D97"/>
<rect x="782.617" y="225.052" width="25" height="25" fill="#C4C4C4"/>
<rect width="70" height="38" transform="translate(760.617 219.052)" fill="#696D97"/>
<rect x="782.617" y="225.052" width="25" height="25" fill="#C4C4C4"/>
<rect width="70" height="38" transform="translate(760.617 219.052)" fill="#696D97"/>
<rect x="782.617" y="225.052" width="25" height="25" fill="#C4C4C4"/>
<rect x="760.617" y="273.815" width="98.5986" height="53.3589" rx="10" fill="#696D97"/>
<rect x="782.617" y="279.815" width="25" height="25" fill="#C4C4C4"/>
<rect width="70" height="38" transform="translate(760.617 273.815)" fill="#696D97"/>
<rect x="782.617" y="279.815" width="25" height="25" fill="#C4C4C4"/>
<rect width="70" height="38" transform="translate(760.617 273.815)" fill="#696D97"/>
<rect x="782.617" y="279.815" width="25" height="25" fill="#C4C4C4"/>
<rect width="70" height="38" transform="translate(760.617 273.815)" fill="#696D97"/>
<rect x="782.617" y="279.815" width="25" height="25" fill="#C4C4C4"/>
<rect width="70" height="38" transform="translate(760.617 273.815)" fill="#696D97"/>
<rect x="782.617" y="279.815" width="25" height="25" fill="#C4C4C4"/>
<rect width="70" height="38" transform="translate(760.617 273.815)" fill="#696D97"/>
<rect x="782.617" y="279.815" width="25" height="25" fill="#C4C4C4"/>
<rect width="70" height="38" transform="translate(760.617 273.815)" fill="#696D97"/>
<rect x="782.617" y="279.815" width="25" height="25" fill="#C4C4C4"/>
<rect width="70" height="38" transform="translate(760.617 273.815)" fill="#696D97"/>
<rect x="782.617" y="279.815" width="25" height="25" fill="#C4C4C4"/>
<rect width="70" height="38" transform="translate(760.617 273.815)" fill="#696D97"/>
<rect x="782.617" y="279.815" width="25" height="25" fill="#C4C4C4"/>
<rect width="70" height="38" transform="translate(760.617 273.815)" fill="#696D97"/>
<rect x="782.617" y="279.815" width="25" height="25" fill="#C4C4C4"/>
<rect width="70" height="38" transform="translate(760.617 273.815)" fill="#696D97"/>
<rect x="782.617" y="279.815" width="25" height="25" fill="#C4C4C4"/>
<rect width="70" height="38" transform="translate(760.617 273.815)" fill="#696D97"/>
<rect x="782.617" y="279.815" width="25" height="25" fill="#C4C4C4"/>
<rect x="760.617" y="109.526" width="98.5986" height="53.3589" rx="10" fill="#696D97"/>
<rect x="782.617" y="115.526" width="25" height="25" fill="#C4C4C4"/>
<rect x="360.589" y="54.7629" width="98.5986" height="53.3589" rx="10" fill="#696D97"/>
<rect x="382.589" y="60.7629" width="25" height="25" fill="#C4C4C4"/>
<rect x="360.589" y="164.289" width="98.5986" height="53.3589" rx="10" fill="#696D97"/>
<rect x="382.589" y="170.289" width="25" height="25" fill="#C4C4C4"/>
<rect width="70" height="38" transform="translate(360.589 164.289)" fill="#696D97"/>
<rect x="382.589" y="170.289" width="25" height="25" fill="#C4C4C4"/>
<rect width="70" height="38" transform="translate(360.589 164.289)" fill="#696D97"/>
<rect x="382.589" y="170.289" width="25" height="25" fill="#C4C4C4"/>
<rect width="70" height="38" transform="translate(360.589 164.289)" fill="#696D97"/>
<rect x="382.589" y="170.289" width="25" height="25" fill="#C4C4C4"/>
<rect width="70" height="38" transform="translate(360.589 164.289)" fill="#696D97"/>
<rect x="382.589" y="170.289" width="25" height="25" fill="#C4C4C4"/>
<rect width="70" height="38" transform="translate(360.589 164.289)" fill="#696D97"/>
<rect x="382.589" y="170.289" width="25" height="25" fill="#C4C4C4"/>
<rect width="70" height="38" transform="translate(360.589 164.289)" fill="#696D97"/>
<rect x="382.589" y="170.289" width="25" height="25" fill="#C4C4C4"/>
<rect width="70" height="38" transform="translate(360.589 164.289)" fill="#696D97"/>
<rect x="382.589" y="170.289" width="25" height="25" fill="#C4C4C4"/>
<rect width="70" height="38" transform="translate(360.589 164.289)" fill="#696D97"/>
<rect x="382.589" y="170.289" width="25" height="25" fill="#C4C4C4"/>
<rect width="70" height="38" transform="translate(360.589 164.289)" fill="#696D97"/>
<rect x="382.589" y="170.289" width="25" height="25" fill="#C4C4C4"/>
<rect width="70" height="38" transform="translate(360.589 164.289)" fill="#696D97"/>
<rect x="382.589" y="170.289" width="25" height="25" fill="#C4C4C4"/>
<rect width="70" height="38" transform="translate(360.589 164.289)" fill="#696D97"/>
<rect x="382.589" y="170.289" width="25" height="25" fill="#C4C4C4"/>
<rect x="360.589" y="219.052" width="98.5986" height="53.3589" rx="10" fill="#696D97"/>
<rect x="382.589" y="225.052" width="25" height="25" fill="#C4C4C4"/>
<rect width="70" height="38" transform="translate(360.589 219.052)" fill="#696D97"/>
<rect x="382.589" y="225.052" width="25" height="25" fill="#C4C4C4"/>
<rect width="70" height="38" transform="translate(360.589 219.052)" fill="#696D97"/>
<rect x="382.589" y="225.052" width="25" height="25" fill="#C4C4C4"/>
<rect width="70" height="38" transform="translate(360.589 219.052)" fill="#696D97"/>
<rect x="382.589" y="225.052" width="25" height="25" fill="#C4C4C4"/>
<rect width="70" height="38" transform="translate(360.589 219.052)" fill="#696D97"/>
<rect x="382.589" y="225.052" width="25" height="25" fill="#C4C4C4"/>
<rect width="70" height="38" transform="translate(360.589 219.052)" fill="#696D97"/>
<rect x="382.589" y="225.052" width="25" height="25" fill="#C4C4C4"/>
<rect width="70" height="38" transform="translate(360.589 219.052)" fill="#696D97"/>
<rect x="382.589" y="225.052" width="25" height="25" fill="#C4C4C4"/>
<rect width="70" height="38" transform="translate(360.589 219.052)" fill="#696D97"/>
<rect x="382.589" y="225.052" width="25" height="25" fill="#C4C4C4"/>
<rect width="70" height="38" transform="translate(360.589 219.052)" fill="#696D97"/>
<rect x="382.589" y="225.052" width="25" height="25" fill="#C4C4C4"/>
<rect width="70" height="38" transform="translate(360.589 219.052)" fill="#696D97"/>
<rect x="382.589" y="225.052" width="25" height="25" fill="#C4C4C4"/>
<rect width="70" height="38" transform="translate(360.589 219.052)" fill="#696D97"/>
<rect x="382.589" y="225.052" width="25" height="25" fill="#C4C4C4"/>
<rect width="70" height="38" transform="translate(360.589 219.052)" fill="#696D97"/>
<rect x="382.589" y="225.052" width="25" height="25" fill="#C4C4C4"/>
<rect x="360.589" y="273.815" width="98.5986" height="53.3589" rx="10" fill="#696D97"/>
<rect x="382.589" y="279.815" width="25" height="25" fill="#C4C4C4"/>
<rect width="70" height="38" transform="translate(360.589 273.815)" fill="#696D97"/>
<rect x="382.589" y="279.815" width="25" height="25" fill="#C4C4C4"/>
<rect width="70" height="38" transform="translate(360.589 273.815)" fill="#696D97"/>
<rect x="382.589" y="279.815" width="25" height="25" fill="#C4C4C4"/>
<rect width="70" height="38" transform="translate(360.589 273.815)" fill="#696D97"/>
<rect x="382.589" y="279.815" width="25" height="25" fill="#C4C4C4"/>
<rect width="70" height="38" transform="translate(360.589 273.815)" fill="#696D97"/>
<rect x="382.589" y="279.815" width="25" height="25" fill="#C4C4C4"/>
<rect width="70" height="38" transform="translate(360.589 273.815)" fill="#696D97"/>
<rect x="382.589" y="279.815" width="25" height="25" fill="#C4C4C4"/>
<rect width="70" height="38" transform="translate(360.589 273.815)" fill="#696D97"/>
<rect x="382.589" y="279.815" width="25" height="25" fill="#C4C4C4"/>
<rect width="70" height="38" transform="translate(360.589 273.815)" fill="#696D97"/>
<rect x="382.589" y="279.815" width="25" height="25" fill="#C4C4C4"/>
<rect width="70" height="38" transform="translate(360.589 273.815)" fill="#696D97"/>
<rect x="382.589" y="279.815" width="25" height="25" fill="#C4C4C4"/>
<rect width="70" height="38" transform="translate(360.589 273.815)" fill="#696D97"/>
<rect x="382.589" y="279.815" width="25" height="25" fill="#C4C4C4"/>
<rect width="70" height="38" transform="translate(360.589 273.815)" fill="#696D97"/>
<rect x="382.589" y="279.815" width="25" height="25" fill="#C4C4C4"/>
<rect width="70" height="38" transform="translate(360.589 273.815)" fill="#696D97"/>
<rect x="382.589" y="279.815" width="25" height="25" fill="#C4C4C4"/>
<rect x="360.589" y="109.526" width="98.5986" height="53.3589" rx="10" fill="#696D97"/>
<rect x="382.589" y="115.526" width="25" height="25" fill="#C4C4C4"/>
<rect x="260.582" y="54.7629" width="98.5986" height="53.3589" rx="10" fill="#696D97"/>
<rect x="282.582" y="60.7629" width="25" height="25" fill="#C4C4C4"/>
<rect x="260.582" y="164.289" width="98.5986" height="53.3589" rx="10" fill="#696D97"/>
<rect x="282.582" y="170.289" width="25" height="25" fill="#C4C4C4"/>
<rect width="70" height="38" transform="translate(260.582 164.289)" fill="#696D97"/>
<rect x="282.582" y="170.289" width="25" height="25" fill="#C4C4C4"/>
<rect width="70" height="38" transform="translate(260.582 164.289)" fill="#696D97"/>
<rect x="282.582" y="170.289" width="25" height="25" fill="#C4C4C4"/>
<rect width="70" height="38" transform="translate(260.582 164.289)" fill="#696D97"/>
<rect x="282.582" y="170.289" width="25" height="25" fill="#C4C4C4"/>
<rect width="70" height="38" transform="translate(260.582 164.289)" fill="#696D97"/>
<rect x="282.582" y="170.289" width="25" height="25" fill="#C4C4C4"/>
<rect width="70" height="38" transform="translate(260.582 164.289)" fill="#696D97"/>
<rect x="282.582" y="170.289" width="25" height="25" fill="#C4C4C4"/>
<rect width="70" height="38" transform="translate(260.582 164.289)" fill="#696D97"/>
<rect x="282.582" y="170.289" width="25" height="25" fill="#C4C4C4"/>
<rect width="70" height="38" transform="translate(260.582 164.289)" fill="#696D97"/>
<rect x="282.582" y="170.289" width="25" height="25" fill="#C4C4C4"/>
<rect width="70" height="38" transform="translate(260.582 164.289)" fill="#696D97"/>
<rect x="282.582" y="170.289" width="25" height="25" fill="#C4C4C4"/>
<rect width="70" height="38" transform="translate(260.582 164.289)" fill="#696D97"/>
<rect x="282.582" y="170.289" width="25" height="25" fill="#C4C4C4"/>
<rect width="70" height="38" transform="translate(260.582 164.289)" fill="#696D97"/>
<rect x="282.582" y="170.289" width="25" height="25" fill="#C4C4C4"/>
<rect width="70" height="38" transform="translate(260.582 164.289)" fill="#696D97"/>
<rect x="282.582" y="170.289" width="25" height="25" fill="#C4C4C4"/>
<rect x="260.582" y="219.052" width="98.5986" height="53.3589" rx="10" fill="#696D97"/>
<rect x="282.582" y="225.052" width="25" height="25" fill="#C4C4C4"/>
<rect width="70" height="38" transform="translate(260.582 219.052)" fill="#696D97"/>
<rect x="282.582" y="225.052" width="25" height="25" fill="#C4C4C4"/>
<rect width="70" height="38" transform="translate(260.582 219.052)" fill="#696D97"/>
<rect x="282.582" y="225.052" width="25" height="25" fill="#C4C4C4"/>
<rect width="70" height="38" transform="translate(260.582 219.052)" fill="#696D97"/>
<rect x="282.582" y="225.052" width="25" height="25" fill="#C4C4C4"/>
<rect width="70" height="38" transform="translate(260.582 219.052)" fill="#696D97"/>
<rect x="282.582" y="225.052" width="25" height="25" fill="#C4C4C4"/>
<rect width="70" height="38" transform="translate(260.582 219.052)" fill="#696D97"/>
<rect x="282.582" y="225.052" width="25" height="25" fill="#C4C4C4"/>
<rect width="70" height="38" transform="translate(260.582 219.052)" fill="#696D97"/>
<rect x="282.582" y="225.052" width="25" height="25" fill="#C4C4C4"/>
<rect width="70" height="38" transform="translate(260.582 219.052)" fill="#696D97"/>
<rect x="282.582" y="225.052" width="25" height="25" fill="#C4C4C4"/>
<rect width="70" height="38" transform="translate(260.582 219.052)" fill="#696D97"/>
<rect x="282.582" y="225.052" width="25" height="25" fill="#C4C4C4"/>
<rect width="70" height="38" transform="translate(260.582 219.052)" fill="#696D97"/>
<rect x="282.582" y="225.052" width="25" height="25" fill="#C4C4C4"/>
<rect width="70" height="38" transform="translate(260.582 219.052)" fill="#696D97"/>
<rect x="282.582" y="225.052" width="25" height="25" fill="#C4C4C4"/>
<rect width="70" height="38" transform="translate(260.582 219.052)" fill="#696D97"/>
<rect x="282.582" y="225.052" width="25" height="25" fill="#C4C4C4"/>
<rect x="260.582" y="273.815" width="98.5986" height="53.3589" rx="10" fill="#696D97"/>
<rect x="282.582" y="279.815" width="25" height="25" fill="#C4C4C4"/>
<rect width="70" height="38" transform="translate(260.582 273.815)" fill="#696D97"/>
<rect x="282.582" y="279.815" width="25" height="25" fill="#C4C4C4"/>
<rect width="70" height="38" transform="translate(260.582 273.815)" fill="#696D97"/>
<rect x="282.582" y="279.815" width="25" height="25" fill="#C4C4C4"/>
<rect width="70" height="38" transform="translate(260.582 273.815)" fill="#696D97"/>
<rect x="282.582" y="279.815" width="25" height="25" fill="#C4C4C4"/>
<rect width="70" height="38" transform="translate(260.582 273.815)" fill="#696D97"/>
<rect x="282.582" y="279.815" width="25" height="25" fill="#C4C4C4"/>
<rect width="70" height="38" transform="translate(260.582 273.815)" fill="#696D97"/>
<rect x="282.582" y="279.815" width="25" height="25" fill="#C4C4C4"/>
<rect width="70" height="38" transform="translate(260.582 273.815)" fill="#696D97"/>
<rect x="282.582" y="279.815" width="25" height="25" fill="#C4C4C4"/>
<rect width="70" height="38" transform="translate(260.582 273.815)" fill="#696D97"/>
<rect x="282.582" y="279.815" width="25" height="25" fill="#C4C4C4"/>
<rect width="70" height="38" transform="translate(260.582 273.815)" fill="#696D97"/>
<rect x="282.582" y="279.815" width="25" height="25" fill="#C4C4C4"/>
<rect width="70" height="38" transform="translate(260.582 273.815)" fill="#696D97"/>
<rect x="282.582" y="279.815" width="25" height="25" fill="#C4C4C4"/>
<rect width="70" height="38" transform="translate(260.582 273.815)" fill="#696D97"/>
<rect x="282.582" y="279.815" width="25" height="25" fill="#C4C4C4"/>
<rect width="70" height="38" transform="translate(260.582 273.815)" fill="#696D97"/>
<rect x="282.582" y="279.815" width="25" height="25" fill="#C4C4C4"/>
<rect x="260.582" y="109.526" width="98.5986" height="53.3589" rx="10" fill="#696D97"/>
<rect x="282.582" y="115.526" width="25" height="25" fill="#C4C4C4"/>
<rect y="109.526" width="159.166" height="53.3589" rx="10" fill="#696D97"/>
<path d="M23.6758 128.958C23.1992 129.462 22.6426 129.714 22.0059 129.714C21.2559 129.714 20.6582 129.452 20.2129 128.928C19.7676 128.401 19.5449 127.71 19.5449 126.854C19.5449 126.292 19.6582 125.782 19.8848 125.325C20.1113 124.868 20.4336 124.512 20.8516 124.259C21.2695 124.005 21.7539 123.878 22.3047 123.878C23.1641 123.878 23.8457 124.198 24.3496 124.839C24.8535 125.479 25.1055 126.337 25.1055 127.411V127.809C25.1055 129.348 24.7578 130.522 24.0625 131.331C23.3672 132.139 22.3301 132.55 20.9512 132.561H20.7812V131.384H20.9863C21.8262 131.372 22.4707 131.171 22.9199 130.78C23.3691 130.385 23.6211 129.778 23.6758 128.958ZM22.3047 128.6C22.5898 128.6 22.8574 128.518 23.1074 128.354C23.3574 128.19 23.5508 127.964 23.6875 127.675V127.118C23.6875 126.489 23.5586 125.983 23.3008 125.6C23.043 125.218 22.709 125.026 22.2988 125.026C21.8887 125.026 21.5605 125.196 21.3145 125.536C21.0723 125.872 20.9512 126.298 20.9512 126.813C20.9512 127.348 21.0742 127.78 21.3203 128.108C21.5664 128.436 21.8945 128.6 22.3047 128.6ZM27.9531 126.878C28.418 126.339 29.0059 126.069 29.7168 126.069C31.0684 126.069 31.7539 126.841 31.7734 128.384V132.526H30.3496V128.436C30.3496 127.999 30.2539 127.69 30.0625 127.51C29.875 127.327 29.5977 127.235 29.2305 127.235C28.6602 127.235 28.2344 127.489 27.9531 127.997V132.526H26.5293V123.526H27.9531V126.878ZM34.7734 127.61H35.6406C36.0781 127.606 36.4238 127.493 36.6777 127.27C36.9355 127.048 37.0645 126.725 37.0645 126.303C37.0645 125.897 36.957 125.583 36.7422 125.36C36.5312 125.134 36.207 125.02 35.7695 125.02C35.3867 125.02 35.0723 125.132 34.8262 125.354C34.5801 125.573 34.457 125.86 34.457 126.216H33.0332C33.0332 125.778 33.1484 125.38 33.3789 125.02C33.6133 124.661 33.9375 124.382 34.3516 124.182C34.7695 123.979 35.2363 123.878 35.752 123.878C36.6035 123.878 37.2715 124.093 37.7559 124.522C38.2441 124.948 38.4883 125.542 38.4883 126.303C38.4883 126.686 38.3652 127.048 38.1191 127.387C37.877 127.723 37.5625 127.977 37.1758 128.149C37.6445 128.309 38 128.561 38.2422 128.905C38.4883 129.249 38.6113 129.659 38.6113 130.135C38.6113 130.901 38.3477 131.51 37.8203 131.964C37.2969 132.417 36.6074 132.643 35.752 132.643C34.9316 132.643 34.2598 132.425 33.7363 131.987C33.2129 131.55 32.9512 130.968 32.9512 130.241H34.375C34.375 130.616 34.5 130.921 34.75 131.155C35.0039 131.389 35.3438 131.507 35.7695 131.507C36.2109 131.507 36.5586 131.389 36.8125 131.155C37.0664 130.921 37.1934 130.581 37.1934 130.135C37.1934 129.686 37.0605 129.341 36.7949 129.098C36.5293 128.856 36.1348 128.735 35.6113 128.735H34.7734V127.61ZM45.5078 128.934C45.5078 130.161 45.2773 131.087 44.8164 131.712C44.3594 132.333 43.6621 132.643 42.7246 132.643C41.8027 132.643 41.1074 132.341 40.6387 131.735C40.1738 131.126 39.9355 130.225 39.9238 129.034V127.557C39.9238 126.331 40.1523 125.411 40.6094 124.798C41.0703 124.184 41.7715 123.878 42.7129 123.878C43.6465 123.878 44.3418 124.177 44.7988 124.774C45.2598 125.372 45.4961 126.266 45.5078 127.458V128.934ZM44.084 127.341C44.084 126.54 43.9746 125.954 43.7559 125.583C43.5371 125.208 43.1895 125.02 42.7129 125.02C42.248 125.02 41.9062 125.198 41.6875 125.553C41.4688 125.905 41.3535 126.456 41.3418 127.206V129.139C41.3418 129.936 41.4531 130.53 41.6758 130.921C41.8984 131.311 42.248 131.507 42.7246 131.507C43.1816 131.507 43.5195 131.327 43.7383 130.968C43.957 130.604 44.0723 130.038 44.084 129.268V127.341ZM52.6094 129.473H49.5332V128.325H52.6094V129.473ZM60.5371 132.526H59.1191V125.677L57.0273 126.391V125.19L60.3555 123.966H60.5371V132.526ZM67.3574 132.526H65.9395V125.677L63.8477 126.391V125.19L67.1758 123.966H67.3574V132.526ZM71.8164 126.878C72.2812 126.339 72.8691 126.069 73.5801 126.069C74.9316 126.069 75.6172 126.841 75.6367 128.384V132.526H74.2129V128.436C74.2129 127.999 74.1172 127.69 73.9258 127.51C73.7383 127.327 73.4609 127.235 73.0938 127.235C72.5234 127.235 72.0977 127.489 71.8164 127.997V132.526H70.3926V123.526H71.8164V126.878ZM78.6367 127.61H79.5039C79.9414 127.606 80.2871 127.493 80.541 127.27C80.7988 127.048 80.9277 126.725 80.9277 126.303C80.9277 125.897 80.8203 125.583 80.6055 125.36C80.3945 125.134 80.0703 125.02 79.6328 125.02C79.25 125.02 78.9355 125.132 78.6895 125.354C78.4434 125.573 78.3203 125.86 78.3203 126.216H76.8965C76.8965 125.778 77.0117 125.38 77.2422 125.02C77.4766 124.661 77.8008 124.382 78.2148 124.182C78.6328 123.979 79.0996 123.878 79.6152 123.878C80.4668 123.878 81.1348 124.093 81.6191 124.522C82.1074 124.948 82.3516 125.542 82.3516 126.303C82.3516 126.686 82.2285 127.048 81.9824 127.387C81.7402 127.723 81.4258 127.977 81.0391 128.149C81.5078 128.309 81.8633 128.561 82.1055 128.905C82.3516 129.249 82.4746 129.659 82.4746 130.135C82.4746 130.901 82.2109 131.51 81.6836 131.964C81.1602 132.417 80.4707 132.643 79.6152 132.643C78.7949 132.643 78.123 132.425 77.5996 131.987C77.0762 131.55 76.8145 130.968 76.8145 130.241H78.2383C78.2383 130.616 78.3633 130.921 78.6133 131.155C78.8672 131.389 79.207 131.507 79.6328 131.507C80.0742 131.507 80.4219 131.389 80.6758 131.155C80.9297 130.921 81.0566 130.581 81.0566 130.135C81.0566 129.686 80.9238 129.341 80.6582 129.098C80.3926 128.856 79.998 128.735 79.4746 128.735H78.6367V127.61ZM89.3711 128.934C89.3711 130.161 89.1406 131.087 88.6797 131.712C88.2227 132.333 87.5254 132.643 86.5879 132.643C85.666 132.643 84.9707 132.341 84.502 131.735C84.0371 131.126 83.7988 130.225 83.7871 129.034V127.557C83.7871 126.331 84.0156 125.411 84.4727 124.798C84.9336 124.184 85.6348 123.878 86.5762 123.878C87.5098 123.878 88.2051 124.177 88.6621 124.774C89.123 125.372 89.3594 126.266 89.3711 127.458V128.934ZM87.9473 127.341C87.9473 126.54 87.8379 125.954 87.6191 125.583C87.4004 125.208 87.0527 125.02 86.5762 125.02C86.1113 125.02 85.7695 125.198 85.5508 125.553C85.332 125.905 85.2168 126.456 85.2051 127.206V129.139C85.2051 129.936 85.3164 130.53 85.5391 130.921C85.7617 131.311 86.1113 131.507 86.5879 131.507C87.0449 131.507 87.3828 131.327 87.6016 130.968C87.8203 130.604 87.9355 130.038 87.9473 129.268V127.341Z" fill="white"/>
<rect y="164.289" width="159.166" height="53.3589" rx="10" fill="#696D97"/>
<path d="M22.4941 187.289H21.0762V180.439L18.9844 181.154V179.953L22.3125 178.729H22.4941V187.289ZM27.1055 182.373H27.9727C28.4102 182.369 28.7559 182.256 29.0098 182.033C29.2676 181.811 29.3965 181.488 29.3965 181.066C29.3965 180.66 29.2891 180.346 29.0742 180.123C28.8633 179.896 28.5391 179.783 28.1016 179.783C27.7188 179.783 27.4043 179.895 27.1582 180.117C26.9121 180.336 26.7891 180.623 26.7891 180.979H25.3652C25.3652 180.541 25.4805 180.143 25.7109 179.783C25.9453 179.424 26.2695 179.145 26.6836 178.945C27.1016 178.742 27.5684 178.641 28.084 178.641C28.9355 178.641 29.6035 178.855 30.0879 179.285C30.5762 179.711 30.8203 180.305 30.8203 181.066C30.8203 181.449 30.6973 181.811 30.4512 182.15C30.209 182.486 29.8945 182.74 29.5078 182.912C29.9766 183.072 30.332 183.324 30.5742 183.668C30.8203 184.012 30.9434 184.422 30.9434 184.898C30.9434 185.664 30.6797 186.273 30.1523 186.727C29.6289 187.18 28.9395 187.406 28.084 187.406C27.2637 187.406 26.5918 187.188 26.0684 186.75C25.5449 186.312 25.2832 185.73 25.2832 185.004H26.707C26.707 185.379 26.832 185.684 27.082 185.918C27.3359 186.152 27.6758 186.27 28.1016 186.27C28.543 186.27 28.8906 186.152 29.1445 185.918C29.3984 185.684 29.5254 185.344 29.5254 184.898C29.5254 184.449 29.3926 184.104 29.127 183.861C28.8613 183.619 28.4668 183.498 27.9434 183.498H27.1055V182.373ZM33.7734 181.641C34.2383 181.102 34.8262 180.832 35.5371 180.832C36.8887 180.832 37.5742 181.604 37.5938 183.146V187.289H36.1699V183.199C36.1699 182.762 36.0742 182.453 35.8828 182.273C35.6953 182.09 35.418 181.998 35.0508 181.998C34.4805 181.998 34.0547 182.252 33.7734 182.76V187.289H32.3496V178.289H33.7734V181.641ZM40.5938 182.373H41.4609C41.8984 182.369 42.2441 182.256 42.498 182.033C42.7559 181.811 42.8848 181.488 42.8848 181.066C42.8848 180.66 42.7773 180.346 42.5625 180.123C42.3516 179.896 42.0273 179.783 41.5898 179.783C41.207 179.783 40.8926 179.895 40.6465 180.117C40.4004 180.336 40.2773 180.623 40.2773 180.979H38.8535C38.8535 180.541 38.9688 180.143 39.1992 179.783C39.4336 179.424 39.7578 179.145 40.1719 178.945C40.5898 178.742 41.0566 178.641 41.5723 178.641C42.4238 178.641 43.0918 178.855 43.5762 179.285C44.0645 179.711 44.3086 180.305 44.3086 181.066C44.3086 181.449 44.1855 181.811 43.9395 182.15C43.6973 182.486 43.3828 182.74 42.9961 182.912C43.4648 183.072 43.8203 183.324 44.0625 183.668C44.3086 184.012 44.4316 184.422 44.4316 184.898C44.4316 185.664 44.168 186.273 43.6406 186.727C43.1172 187.18 42.4277 187.406 41.5723 187.406C40.752 187.406 40.0801 187.188 39.5566 186.75C39.0332 186.312 38.7715 185.73 38.7715 185.004H40.1953C40.1953 185.379 40.3203 185.684 40.5703 185.918C40.8242 186.152 41.1641 186.27 41.5898 186.27C42.0312 186.27 42.3789 186.152 42.6328 185.918C42.8867 185.684 43.0137 185.344 43.0137 184.898C43.0137 184.449 42.8809 184.104 42.6152 183.861C42.3496 183.619 41.9551 183.498 41.4316 183.498H40.5938V182.373ZM51.3281 183.697C51.3281 184.924 51.0977 185.85 50.6367 186.475C50.1797 187.096 49.4824 187.406 48.5449 187.406C47.623 187.406 46.9277 187.104 46.459 186.498C45.9941 185.889 45.7559 184.988 45.7441 183.797V182.32C45.7441 181.094 45.9727 180.174 46.4297 179.561C46.8906 178.947 47.5918 178.641 48.5332 178.641C49.4668 178.641 50.1621 178.939 50.6191 179.537C51.0801 180.135 51.3164 181.029 51.3281 182.221V183.697ZM49.9043 182.104C49.9043 181.303 49.7949 180.717 49.5762 180.346C49.3574 179.971 49.0098 179.783 48.5332 179.783C48.0684 179.783 47.7266 179.961 47.5078 180.316C47.2891 180.668 47.1738 181.219 47.1621 181.969V183.902C47.1621 184.699 47.2734 185.293 47.4961 185.684C47.7188 186.074 48.0684 186.27 48.5449 186.27C49.002 186.27 49.3398 186.09 49.5586 185.73C49.7773 185.367 49.8926 184.801 49.9043 184.031V182.104ZM58.4297 184.236H55.3535V183.088H58.4297V184.236ZM66.3574 187.289H64.9395V180.439L62.8477 181.154V179.953L66.1758 178.729H66.3574V187.289ZM69.7031 183.059L70.166 178.758H74.748V179.988H71.3496L71.1152 182.027C71.5098 181.801 71.9551 181.688 72.4512 181.688C73.2637 181.688 73.8945 181.947 74.3438 182.467C74.7969 182.986 75.0234 183.686 75.0234 184.564C75.0234 185.432 74.7734 186.123 74.2734 186.639C73.7734 187.15 73.0879 187.406 72.2168 187.406C71.4355 187.406 70.7871 187.186 70.2715 186.744C69.7598 186.299 69.4824 185.713 69.4395 184.986H70.8164C70.8711 185.4 71.0195 185.719 71.2617 185.941C71.5039 186.16 71.8203 186.27 72.2109 186.27C72.6484 186.27 72.9883 186.113 73.2305 185.801C73.4766 185.488 73.5996 185.062 73.5996 184.523C73.5996 184.004 73.4648 183.594 73.1953 183.293C72.9258 182.988 72.5547 182.836 72.082 182.836C71.8242 182.836 71.6055 182.871 71.4258 182.941C71.2461 183.008 71.0508 183.141 70.8398 183.34L69.7031 183.059ZM77.6367 181.641C78.1016 181.102 78.6895 180.832 79.4004 180.832C80.752 180.832 81.4375 181.604 81.457 183.146V187.289H80.0332V183.199C80.0332 182.762 79.9375 182.453 79.7461 182.273C79.5586 182.09 79.2812 181.998 78.9141 181.998C78.3438 181.998 77.918 182.252 77.6367 182.76V187.289H76.2129V178.289H77.6367V181.641ZM84.457 182.373H85.3242C85.7617 182.369 86.1074 182.256 86.3613 182.033C86.6191 181.811 86.748 181.488 86.748 181.066C86.748 180.66 86.6406 180.346 86.4258 180.123C86.2148 179.896 85.8906 179.783 85.4531 179.783C85.0703 179.783 84.7559 179.895 84.5098 180.117C84.2637 180.336 84.1406 180.623 84.1406 180.979H82.7168C82.7168 180.541 82.832 180.143 83.0625 179.783C83.2969 179.424 83.6211 179.145 84.0352 178.945C84.4531 178.742 84.9199 178.641 85.4355 178.641C86.2871 178.641 86.9551 178.855 87.4395 179.285C87.9277 179.711 88.1719 180.305 88.1719 181.066C88.1719 181.449 88.0488 181.811 87.8027 182.15C87.5605 182.486 87.2461 182.74 86.8594 182.912C87.3281 183.072 87.6836 183.324 87.9258 183.668C88.1719 184.012 88.2949 184.422 88.2949 184.898C88.2949 185.664 88.0312 186.273 87.5039 186.727C86.9805 187.18 86.291 187.406 85.4355 187.406C84.6152 187.406 83.9434 187.188 83.4199 186.75C82.8965 186.312 82.6348 185.73 82.6348 185.004H84.0586C84.0586 185.379 84.1836 185.684 84.4336 185.918C84.6875 186.152 85.0273 186.27 85.4531 186.27C85.8945 186.27 86.2422 186.152 86.4961 185.918C86.75 185.684 86.877 185.344 86.877 184.898C86.877 184.449 86.7441 184.104 86.4785 183.861C86.2129 183.619 85.8184 183.498 85.2949 183.498H84.457V182.373ZM95.1914 183.697C95.1914 184.924 94.9609 185.85 94.5 186.475C94.043 187.096 93.3457 187.406 92.4082 187.406C91.4863 187.406 90.791 187.104 90.3223 186.498C89.8574 185.889 89.6191 184.988 89.6074 183.797V182.32C89.6074 181.094 89.8359 180.174 90.293 179.561C90.7539 178.947 91.4551 178.641 92.3965 178.641C93.3301 178.641 94.0254 178.939 94.4824 179.537C94.9434 180.135 95.1797 181.029 95.1914 182.221V183.697ZM93.7676 182.104C93.7676 181.303 93.6582 180.717 93.4395 180.346C93.2207 179.971 92.873 179.783 92.3965 179.783C91.9316 179.783 91.5898 179.961 91.3711 180.316C91.1523 180.668 91.0371 181.219 91.0254 181.969V183.902C91.0254 184.699 91.1367 185.293 91.3594 185.684C91.582 186.074 91.9316 186.27 92.4082 186.27C92.8652 186.27 93.2031 186.09 93.4219 185.73C93.6406 185.367 93.7559 184.801 93.7676 184.031V182.104Z" fill="white"/>
<rect y="219.052" width="159.166" height="53.3589" rx="10" fill="#696D97"/>
<path d="M37.4941 242.052H36.0762V235.203L33.9844 235.917V234.716L37.3125 233.492H37.4941V242.052ZM44.8887 233.48V234.658H44.7129C43.916 234.669 43.2793 234.888 42.8027 235.314C42.3262 235.74 42.043 236.343 41.9531 237.125C42.4102 236.644 42.9941 236.404 43.7051 236.404C44.459 236.404 45.0527 236.669 45.4863 237.201C45.9238 237.732 46.1426 238.417 46.1426 239.257C46.1426 240.125 45.8867 240.828 45.375 241.367C44.8672 241.902 44.1992 242.169 43.3711 242.169C42.5195 242.169 41.8281 241.855 41.2969 241.226C40.7695 240.597 40.5059 239.773 40.5059 238.753V238.267C40.5059 236.771 40.8691 235.599 41.5957 234.751C42.3262 233.904 43.375 233.48 44.7422 233.48H44.8887ZM43.3594 237.552C43.0469 237.552 42.7598 237.64 42.498 237.816C42.2402 237.992 42.0508 238.226 41.9297 238.519V238.953C41.9297 239.585 42.0625 240.089 42.3281 240.464C42.5938 240.835 42.9375 241.021 43.3594 241.021C43.7812 241.021 44.1152 240.863 44.3613 240.546C44.6074 240.23 44.7305 239.814 44.7305 239.298C44.7305 238.783 44.6055 238.363 44.3555 238.039C44.1055 237.714 43.7734 237.552 43.3594 237.552ZM48.7734 236.404C49.2383 235.865 49.8262 235.595 50.5371 235.595C51.8887 235.595 52.5742 236.367 52.5938 237.91V242.052H51.1699V237.962C51.1699 237.525 51.0742 237.216 50.8828 237.037C50.6953 236.853 50.418 236.761 50.0508 236.761C49.4805 236.761 49.0547 237.015 48.7734 237.523V242.052H47.3496V233.052H48.7734V236.404ZM56.8008 239H53.7246V237.851H56.8008V239ZM64.7285 242.052H63.3105V235.203L61.2188 235.917V234.716L64.5469 233.492H64.7285V242.052ZM73.0664 235.771C73.0664 236.189 72.959 236.562 72.7441 236.89C72.5293 237.214 72.2363 237.47 71.8652 237.658C72.3105 237.865 72.6523 238.148 72.8906 238.507C73.1328 238.867 73.2539 239.273 73.2539 239.726C73.2539 240.476 73 241.072 72.4922 241.513C71.9844 241.951 71.3086 242.169 70.4648 242.169C69.6172 242.169 68.9375 241.949 68.4258 241.507C67.918 241.066 67.6641 240.472 67.6641 239.726C67.6641 239.269 67.7852 238.859 68.0273 238.496C68.2695 238.132 68.6094 237.853 69.0469 237.658C68.6797 237.47 68.3887 237.214 68.1738 236.89C67.9629 236.562 67.8574 236.189 67.8574 235.771C67.8574 235.044 68.0918 234.468 68.5605 234.042C69.0293 233.617 69.6621 233.404 70.459 233.404C71.2598 233.404 71.8945 233.617 72.3633 234.042C72.832 234.468 73.0664 235.044 73.0664 235.771ZM71.8301 239.656C71.8301 239.234 71.7031 238.894 71.4492 238.636C71.1992 238.375 70.8672 238.244 70.4531 238.244C70.0391 238.244 69.707 238.373 69.457 238.63C69.2109 238.888 69.0879 239.23 69.0879 239.656C69.0879 240.074 69.209 240.408 69.4512 240.658C69.6973 240.908 70.0352 241.033 70.4648 241.033C70.8945 241.033 71.2285 240.912 71.4668 240.669C71.709 240.427 71.8301 240.089 71.8301 239.656ZM71.6484 235.824C71.6484 235.453 71.541 235.148 71.3262 234.91C71.1113 234.667 70.8223 234.546 70.459 234.546C70.0957 234.546 69.8086 234.662 69.5977 234.892C69.3867 235.119 69.2812 235.429 69.2812 235.824C69.2812 236.214 69.3867 236.525 69.5977 236.755C69.8125 236.986 70.1016 237.101 70.4648 237.101C70.8281 237.101 71.1152 236.986 71.3262 236.755C71.541 236.525 71.6484 236.214 71.6484 235.824ZM76.0078 236.404C76.4727 235.865 77.0605 235.595 77.7715 235.595C79.123 235.595 79.8086 236.367 79.8281 237.91V242.052H78.4043V237.962C78.4043 237.525 78.3086 237.216 78.1172 237.037C77.9297 236.853 77.6523 236.761 77.2852 236.761C76.7148 236.761 76.2891 237.015 76.0078 237.523V242.052H74.584V233.052H76.0078V236.404Z" fill="white"/>
<rect y="273.815" width="159.166" height="53.3589" rx="10" fill="#696D97"/>
<path d="M35.4941 296.815H34.0762V289.966L31.9844 290.681V289.479L35.3125 288.255H35.4941V296.815ZM42.4961 293.247C42.0195 293.751 41.4629 294.003 40.8262 294.003C40.0762 294.003 39.4785 293.741 39.0332 293.218C38.5879 292.69 38.3652 291.999 38.3652 291.144C38.3652 290.581 38.4785 290.071 38.7051 289.614C38.9316 289.157 39.2539 288.802 39.6719 288.548C40.0898 288.294 40.5742 288.167 41.125 288.167C41.9844 288.167 42.666 288.487 43.1699 289.128C43.6738 289.769 43.9258 290.626 43.9258 291.7V292.099C43.9258 293.638 43.5781 294.812 42.8828 295.62C42.1875 296.429 41.1504 296.839 39.7715 296.851H39.6016V295.673H39.8066C40.6465 295.661 41.291 295.46 41.7402 295.069C42.1895 294.675 42.4414 294.067 42.4961 293.247ZM41.125 292.89C41.4102 292.89 41.6777 292.808 41.9277 292.644C42.1777 292.479 42.3711 292.253 42.5078 291.964V291.407C42.5078 290.778 42.3789 290.272 42.1211 289.89C41.8633 289.507 41.5293 289.315 41.1191 289.315C40.709 289.315 40.3809 289.485 40.1348 289.825C39.8926 290.161 39.7715 290.587 39.7715 291.103C39.7715 291.638 39.8945 292.069 40.1406 292.397C40.3867 292.726 40.7148 292.89 41.125 292.89ZM46.7734 291.167C47.2383 290.628 47.8262 290.358 48.5371 290.358C49.8887 290.358 50.5742 291.13 50.5938 292.673V296.815H49.1699V292.726C49.1699 292.288 49.0742 291.979 48.8828 291.8C48.6953 291.616 48.418 291.524 48.0508 291.524C47.4805 291.524 47.0547 291.778 46.7734 292.286V296.815H45.3496V287.815H46.7734V291.167ZM57.7891 293.763H54.7129V292.614H57.7891V293.763ZM67.5977 296.815H61.8613V295.837L64.7031 292.737C65.1133 292.28 65.4043 291.899 65.5762 291.595C65.752 291.286 65.8398 290.978 65.8398 290.669C65.8398 290.263 65.7246 289.935 65.4941 289.685C65.2676 289.435 64.9609 289.31 64.5742 289.31C64.1133 289.31 63.7559 289.45 63.502 289.731C63.248 290.013 63.1211 290.397 63.1211 290.886H61.6973C61.6973 290.366 61.8145 289.899 62.0488 289.485C62.2871 289.067 62.625 288.743 63.0625 288.513C63.5039 288.282 64.0117 288.167 64.5859 288.167C65.4141 288.167 66.0664 288.376 66.543 288.794C67.0234 289.208 67.2637 289.782 67.2637 290.517C67.2637 290.942 67.1426 291.39 66.9004 291.858C66.6621 292.323 66.2695 292.853 65.7227 293.446L63.6367 295.679H67.5977V296.815ZM72.5371 296.815H71.1191V289.966L69.0273 290.681V289.479L72.3555 288.255H72.5371V296.815ZM76.9961 291.167C77.4609 290.628 78.0488 290.358 78.7598 290.358C80.1113 290.358 80.7969 291.13 80.8164 292.673V296.815H79.3926V292.726C79.3926 292.288 79.2969 291.979 79.1055 291.8C78.918 291.616 78.6406 291.524 78.2734 291.524C77.7031 291.524 77.2773 291.778 76.9961 292.286V296.815H75.5723V287.815H76.9961V291.167Z" fill="white"/>
</svg>
