<?xml version="1.0" standalone="no"?>
<!DOCTYPE svg PUBLIC "-//W3C//DTD SVG 20010904//EN"
 "http://www.w3.org/TR/2001/REC-SVG-20010904/DTD/svg10.dtd">
<svg version="1.0" xmlns="http://www.w3.org/2000/svg"
 width="256.000000pt" height="256.000000pt" viewBox="0 0 256.000000 256.000000"
 preserveAspectRatio="xMidYMid meet">

<g transform="translate(0.000000,256.000000) scale(0.100000,-0.100000)"
fill="#000000" stroke="none">
<path d="M1090 2062 c-165 -56 -307 -189 -350 -329 -17 -55 -20 -93 -20 -253
l0 -189 28 15 c15 7 33 14 40 14 9 0 12 24 12 86 l0 86 35 -31 c109 -95 298
-131 437 -82 108 37 213 123 253 207 9 19 18 34 21 34 3 0 52 -37 110 -81
l104 -82 0 -68 c0 -49 4 -69 13 -69 6 0 24 -7 40 -14 l27 -15 0 154 c0 125 -4
165 -20 218 -24 77 -85 164 -159 226 -51 43 -52 44 -45 86 3 24 3 57 -1 75
l-7 32 -51 -8 c-61 -9 -85 -9 -272 0 -121 6 -147 4 -195 -12z"/>
<path d="M1020 1260 c-11 -11 -20 -29 -20 -40 0 -11 9 -29 20 -40 11 -11 29
-20 40 -20 11 0 29 9 40 20 11 11 20 29 20 40 0 11 -9 29 -20 40 -11 11 -29
20 -40 20 -11 0 -29 -9 -40 -20z"/>
<path d="M1460 1260 c-11 -11 -20 -29 -20 -40 0 -11 9 -29 20 -40 11 -11 29
-20 40 -20 11 0 29 9 40 20 11 11 20 29 20 40 0 11 -9 29 -20 40 -11 11 -29
20 -40 20 -11 0 -29 -9 -40 -20z"/>
<path d="M997 635 c-129 -48 -267 -148 -343 -249 -39 -51 -94 -145 -94 -160 0
-7 136 -85 187 -107 394 -172 828 -149 1184 62 38 23 69 44 69 48 0 22 -98
166 -148 217 -72 75 -131 116 -225 159 -121 55 -116 56 -110 -18 3 -37 1 -79
-6 -100 -65 -195 -328 -227 -436 -52 -27 44 -30 57 -30 132 0 46 -2 83 -5 82
-3 0 -22 -7 -43 -14z"/>
</g>
</svg>
