<svg width="25" height="25" viewBox="0 0 25 25" fill="none" xmlns="http://www.w3.org/2000/svg">
<rect width="24" height="24" transform="translate(0.5 0.5)" fill="#1877F2"/>
<path d="M24 12.5699C24 6.2186 18.8513 1.06988 12.5 1.06988C6.14872 1.06988 1 6.2186 1 12.5699C1 18.3099 5.20538 23.0674 10.7031 23.9302V15.8941H7.7832V12.5699H10.7031V10.0363C10.7031 7.1541 12.42 5.56207 15.0468 5.56207C16.305 5.56207 17.6211 5.78668 17.6211 5.78668V8.61675H16.171C14.7424 8.61675 14.2969 9.50322 14.2969 10.4127V12.5699H17.4863L16.9765 15.8941H14.2969V23.9302C19.7946 23.0674 24 18.3099 24 12.5699Z" fill="white"/>
</svg>
