<svg width="20" height="24" viewBox="0 0 20 24" fill="none" xmlns="http://www.w3.org/2000/svg">
<path d="M1 16.5V2C1 1.7643 1 1.64645 1.07322 1.57322C1.14645 1.5 1.2643 1.5 1.5 1.5H17.7929C18.3066 1.5 18.5635 1.5 18.6274 1.65433C18.6913 1.80866 18.5097 1.99029 18.1464 2.35355L11.7828 8.71716C11.6495 8.85049 11.5828 8.91716 11.5828 9C11.5828 9.08284 11.6495 9.14951 11.7828 9.28284L18.1464 15.6464C18.5097 16.0097 18.6913 16.1913 18.6274 16.3457C18.5635 16.5 18.3066 16.5 17.7929 16.5H1ZM1 16.5V22.5" stroke="#CCD2E3" stroke-width="2" stroke-linecap="round"/>
</svg>
