<svg width="33" height="33" viewBox="0 0 33 33" fill="none" xmlns="http://www.w3.org/2000/svg">
<path d="M16.5 32C25.0606 32 32 25.0606 32 16.5C32 7.93935 25.0606 1 16.5 1C7.93935 1 1 7.93935 1 16.5C1 25.0606 7.93935 32 16.5 32Z" stroke="white" stroke-width="1.5" stroke-linecap="round" stroke-linejoin="round"/>
<path d="M1 16.5H32" stroke="white" stroke-width="1.5" stroke-linecap="round" stroke-linejoin="round"/>
<path d="M16.5 32C19.924 32 22.7 25.0606 22.7 16.5C22.7 7.93935 19.924 1 16.5 1C13.0761 1 10.3 7.93935 10.3 16.5C10.3 25.0606 13.0761 32 16.5 32Z" stroke="white" stroke-width="1.5" stroke-linecap="round" stroke-linejoin="round"/>
<path d="M5.53992 5.76001C6.9776 7.20149 8.68598 8.34464 10.5669 9.12375C12.4478 9.90287 14.4641 10.3026 16.5 10.3V10.3C18.5358 10.3026 20.5522 9.90287 22.4331 9.12375C24.314 8.34464 26.0223 7.20149 27.46 5.76001" stroke="white" stroke-width="1.5" stroke-linecap="round" stroke-linejoin="round"/>
<path d="M27.46 27.2399C26.0223 25.7984 24.314 24.6553 22.4331 23.8762C20.5522 23.0971 18.5358 22.6973 16.5 22.7C14.4641 22.6973 12.4478 23.0971 10.5669 23.8762C8.68598 24.6553 6.9776 25.7984 5.53992 27.2399" stroke="white" stroke-width="1.5" stroke-linecap="round" stroke-linejoin="round"/>
</svg>
