<svg width="27" height="27" viewBox="0 0 27 27" fill="none" xmlns="http://www.w3.org/2000/svg">
<path d="M9.41088 3.87613C10.6794 -0.282696 16.5671 -0.282697 17.8357 3.87613C18.4009 5.72919 20.1331 6.99524 22.0705 6.99524C26.4156 6.99524 28.3876 12.4978 24.9514 15.1572L24.4988 15.5075C22.9818 16.6816 22.3486 18.6714 22.9083 20.5062L23.1403 21.2668C24.3818 25.3368 19.6596 28.596 16.2945 25.9917C14.7217 24.7744 12.5249 24.7744 10.9521 25.9917C7.58696 28.596 2.8648 25.3368 4.10627 21.2668L4.33825 20.5062C4.89794 18.6714 4.26483 16.6816 2.74776 15.5075L2.29522 15.1572C-1.14102 12.4979 0.830991 6.99524 5.17612 6.99524C7.11347 6.99524 8.84565 5.72919 9.41088 3.87613Z" fill="#E6EA33"/>
</svg>
